<svg id="svg" version="1.1" xmlns="http://www.w3.org/2000/svg" xmlns:xlink="http://www.w3.org/1999/xlink" width="400" height="400" viewBox="0, 0, 400,400"><g id="svgg"><path id="path0" d="M151.299 200.098 L 151.400 299.000 153.600 299.254 C 156.435 299.582,156.996 299.833,157.537 301.022 C 157.790 301.576,158.323 302.000,158.769 302.000 C 159.614 302.000,160.798 303.391,160.803 304.389 C 160.804 304.725,161.325 305.296,161.961 305.658 C 163.209 306.368,163.393 306.929,163.807 311.300 L 164.064 314.000 168.832 314.000 C 171.454 314.000,173.601 313.955,173.603 313.900 C 173.742 309.316,174.975 305.200,176.209 305.200 C 176.534 305.200,176.800 304.880,176.800 304.489 C 176.800 303.463,177.932 301.999,178.723 302.004 C 179.095 302.006,179.871 301.434,180.446 300.734 L 181.493 299.461 186.846 299.098 C 193.777 298.628,216.573 298.985,218.245 299.589 C 218.930 299.837,219.679 300.455,219.910 300.963 C 220.164 301.520,220.817 301.983,221.555 302.131 C 222.469 302.314,222.847 302.658,223.048 303.488 C 223.196 304.100,223.849 305.053,224.500 305.607 C 225.575 306.523,225.721 306.952,226.096 310.307 L 226.508 314.000 231.207 314.000 C 236.494 314.000,236.380 314.075,236.397 310.600 C 236.409 308.036,237.132 306.014,238.213 305.521 C 238.748 305.278,239.371 304.494,239.613 303.760 C 239.873 302.972,240.403 302.335,240.925 302.182 C 241.406 302.041,242.260 301.385,242.823 300.723 C 243.641 299.760,244.241 299.483,245.823 299.336 C 246.910 299.235,248.205 299.070,248.701 298.969 L 249.602 298.784 249.501 200.092 L 249.400 101.400 200.299 101.298 L 151.198 101.197 151.299 200.098 " stroke="none" fill="#fcfcfc" fill-rule="evenodd"></path><path id="path1" d="M250.699 100.267 C 250.034 100.449,250.003 105.453,250.099 200.129 L 250.200 299.800 269.200 299.748 C 302.406 299.658,316.758 299.179,318.200 298.112 C 318.860 297.623,320.452 296.954,321.738 296.624 C 323.284 296.227,324.598 295.553,325.614 294.635 C 326.460 293.870,327.699 292.962,328.368 292.617 C 329.036 292.271,330.215 291.001,330.986 289.794 C 331.758 288.587,332.554 287.600,332.755 287.600 C 332.956 287.600,333.342 286.655,333.614 285.500 C 334.160 283.177,334.957 281.386,335.948 280.258 C 336.546 279.578,336.600 272.934,336.600 200.224 L 336.600 120.932 335.529 119.366 C 334.939 118.505,334.198 116.789,333.881 115.554 C 333.515 114.129,332.701 112.545,331.652 111.218 C 330.743 110.069,330.000 108.969,330.000 108.774 C 330.000 108.580,329.474 108.149,328.831 107.816 C 328.188 107.484,326.836 106.497,325.827 105.623 C 324.716 104.662,323.401 103.932,322.496 103.774 C 321.673 103.630,320.010 102.949,318.800 102.260 L 316.600 101.008 302.400 100.690 C 284.232 100.283,251.613 100.016,250.699 100.267 " stroke="none" fill="#d31921" fill-rule="evenodd"></path><path id="path2" d="M148.967 100.793 C 148.717 101.043,136.447 101.225,115.387 101.293 L 82.200 101.400 80.723 102.530 C 79.910 103.152,78.333 103.901,77.217 104.195 C 75.885 104.547,74.698 105.222,73.755 106.165 C 72.966 106.954,72.014 107.600,71.640 107.600 C 70.798 107.600,70.000 108.361,70.000 109.163 C 70.000 109.495,69.350 110.432,68.555 111.246 C 67.535 112.290,67.008 113.276,66.761 114.598 C 66.562 115.662,65.890 117.128,65.205 117.993 L 64.000 119.515 64.000 200.358 C 64.000 248.327,64.147 281.200,64.362 281.200 C 65.003 281.200,66.800 284.703,66.800 285.952 C 66.800 286.809,67.208 287.558,68.200 288.521 C 68.970 289.269,69.798 290.448,70.039 291.140 C 70.336 291.993,70.740 292.400,71.286 292.400 C 71.731 292.400,72.809 293.115,73.683 293.989 C 74.709 295.015,75.789 295.671,76.736 295.842 C 78.352 296.135,81.600 297.868,81.600 298.438 C 81.600 298.651,95.386 298.800,115.120 298.800 C 140.658 298.800,148.754 298.914,149.120 299.280 C 149.493 299.653,149.600 277.609,149.600 200.080 C 149.600 145.256,149.546 100.400,149.480 100.400 C 149.414 100.400,149.183 100.577,148.967 100.793 " stroke="none" fill="#2c3494" fill-rule="evenodd"></path><path id="path3" d="M150.300 99.629 C 149.562 100.062,149.171 299.117,149.906 300.255 C 150.068 300.506,150.889 300.900,151.731 301.132 C 152.574 301.363,153.854 302.004,154.577 302.555 C 155.299 303.106,156.378 303.680,156.973 303.829 C 157.784 304.033,158.281 304.613,158.963 306.150 C 159.462 307.278,160.171 308.448,160.539 308.752 C 160.906 309.056,161.317 309.989,161.451 310.827 C 161.585 311.665,162.040 312.722,162.463 313.175 C 163.286 314.059,164.242 314.316,163.752 313.522 C 163.589 313.259,163.160 311.940,162.798 310.591 C 161.915 307.303,159.451 303.563,157.228 302.137 C 154.159 300.168,153.827 300.012,152.674 300.006 C 152.054 300.003,151.199 299.814,150.774 299.586 C 149.755 299.041,149.529 101.689,150.546 100.845 C 150.947 100.512,164.379 100.395,201.004 100.405 C 248.917 100.418,251.712 100.378,251.033 99.700 C 250.551 99.218,151.121 99.148,150.300 99.629 M287.039 100.372 C 287.164 100.497,293.866 100.694,301.933 100.809 L 316.600 101.017 318.800 102.265 C 320.010 102.952,321.673 103.630,322.496 103.774 C 323.401 103.932,324.716 104.662,325.827 105.623 C 326.836 106.497,328.188 107.484,328.831 107.816 C 329.474 108.149,330.000 108.580,330.000 108.774 C 330.000 108.969,330.743 110.069,331.652 111.218 C 332.701 112.545,333.515 114.129,333.881 115.554 C 334.198 116.789,334.939 118.505,335.529 119.366 L 336.600 120.932 336.600 200.224 C 336.600 272.934,336.546 279.578,335.948 280.258 C 334.957 281.386,334.160 283.177,333.614 285.500 C 333.342 286.655,332.956 287.600,332.755 287.600 C 332.554 287.600,331.758 288.587,330.986 289.794 C 330.215 291.001,329.036 292.271,328.368 292.617 C 327.699 292.962,326.460 293.870,325.614 294.635 C 324.598 295.553,323.284 296.227,321.738 296.624 C 320.452 296.954,318.860 297.623,318.200 298.112 C 317.027 298.980,316.684 299.005,302.726 299.207 C 294.876 299.321,288.307 299.560,288.128 299.738 C 287.950 299.917,294.373 300.004,302.402 299.931 L 317.000 299.800 319.411 298.551 C 320.737 297.865,322.381 297.180,323.064 297.030 C 323.747 296.880,325.002 296.161,325.853 295.433 C 326.704 294.705,327.978 293.758,328.684 293.329 C 330.304 292.344,333.892 287.468,334.413 285.544 C 334.630 284.743,335.301 283.213,335.904 282.144 L 337.000 280.200 337.000 200.200 L 337.000 120.200 336.077 118.443 C 335.569 117.477,334.816 115.797,334.402 114.710 C 333.282 111.761,330.869 108.492,328.450 106.643 C 324.624 103.720,323.833 103.200,323.211 103.198 C 322.875 103.198,321.520 102.658,320.200 102.000 C 318.880 101.341,317.260 100.718,316.600 100.616 C 314.813 100.338,286.774 100.107,287.039 100.372 M247.170 300.089 C 246.244 300.248,245.107 300.655,244.643 300.993 C 244.180 301.332,243.130 302.056,242.311 302.602 C 241.493 303.149,240.527 304.182,240.165 304.898 C 239.803 305.614,239.146 306.594,238.706 307.076 C 238.266 307.558,237.748 308.798,237.555 309.831 C 237.362 310.865,236.947 312.226,236.632 312.855 C 235.993 314.137,236.218 314.283,237.475 313.402 C 237.988 313.043,238.438 312.159,238.602 311.188 C 238.752 310.299,239.333 309.028,239.893 308.363 C 240.452 307.698,241.135 306.498,241.411 305.698 C 241.805 304.552,242.236 304.129,243.438 303.713 C 244.277 303.423,245.356 302.817,245.835 302.367 C 247.650 300.662,250.281 300.434,269.400 300.332 C 279.300 300.279,285.870 300.184,284.000 300.122 C 275.889 299.850,248.704 299.826,247.170 300.089 M182.378 300.972 C 181.620 301.520,180.338 302.332,179.529 302.777 C 178.720 303.222,177.948 303.934,177.813 304.358 C 177.679 304.783,177.045 305.789,176.404 306.595 C 175.685 307.500,175.136 308.774,174.968 309.930 C 174.819 310.958,174.445 312.295,174.138 312.900 C 173.831 313.505,173.751 314.000,173.961 314.000 C 174.698 314.000,175.583 312.748,176.025 311.082 C 176.271 310.157,176.803 309.040,177.209 308.600 C 177.614 308.160,178.304 306.962,178.742 305.939 C 179.381 304.446,179.784 304.023,180.779 303.805 C 181.461 303.655,182.573 303.066,183.250 302.497 C 185.008 301.018,186.746 300.847,200.000 300.853 C 213.711 300.859,215.566 301.038,217.104 302.500 C 217.707 303.074,218.688 303.663,219.284 303.811 C 220.526 304.118,220.982 304.590,221.396 306.000 C 221.558 306.550,222.100 307.450,222.601 308.000 C 223.102 308.550,223.801 310.015,224.154 311.257 C 224.690 313.138,225.337 314.000,226.212 314.000 C 226.293 314.000,226.115 313.415,225.818 312.700 C 225.520 311.985,225.149 310.551,224.995 309.513 C 224.840 308.475,224.449 307.407,224.127 307.140 C 223.805 306.872,223.183 305.952,222.746 305.094 C 222.308 304.236,221.399 303.234,220.725 302.867 C 220.051 302.500,218.948 301.750,218.273 301.200 L 217.048 300.200 200.401 300.088 L 183.755 299.975 182.378 300.972 " stroke="none" fill="#545454" fill-rule="evenodd"></path><path id="path4" d="M68.132 73.910 C 67.874 74.074,67.543 74.687,67.396 75.273 C 67.145 76.272,66.944 76.356,64.164 76.616 L 61.200 76.894 61.200 78.190 C 61.200 79.483,61.194 79.487,58.741 79.743 C 56.010 80.029,55.394 80.373,55.032 81.816 C 54.855 82.521,54.511 82.800,53.821 82.800 C 52.585 82.800,51.600 83.789,51.600 85.029 C 51.600 85.866,51.413 86.000,50.243 86.000 C 48.815 86.000,48.400 86.497,48.400 88.207 C 48.400 88.978,48.163 89.172,47.100 89.275 C 45.950 89.386,45.785 89.553,45.672 90.732 C 45.569 91.807,45.290 92.170,44.223 92.616 C 42.781 93.219,42.414 94.043,42.405 96.700 C 42.401 98.150,42.278 98.400,41.574 98.400 C 39.626 98.400,39.200 99.049,39.200 102.014 C 39.200 104.697,39.164 104.800,38.229 104.800 C 35.811 104.800,35.985 97.018,36.098 200.246 C 36.209 302.666,36.035 295.178,38.300 295.194 C 39.147 295.200,39.200 295.365,39.200 297.986 C 39.200 300.951,39.626 301.600,41.574 301.600 C 42.309 301.600,42.400 301.843,42.400 303.800 C 42.400 306.083,43.275 307.600,44.592 307.600 C 44.918 307.600,45.293 308.095,45.426 308.700 C 45.859 310.678,45.961 310.800,47.187 310.800 C 48.203 310.800,48.400 310.957,48.400 311.767 C 48.400 313.504,48.809 314.000,50.243 314.000 C 51.382 314.000,51.601 314.145,51.606 314.900 C 51.615 316.252,52.154 316.851,53.633 317.153 C 54.613 317.354,55.032 317.690,55.201 318.413 C 55.455 319.497,57.277 320.338,59.457 320.377 C 60.723 320.400,61.200 320.950,61.200 322.386 C 61.200 323.254,62.273 323.587,65.092 323.595 C 67.041 323.600,67.203 323.675,67.454 324.700 C 67.602 325.305,67.920 325.932,68.162 326.094 C 68.403 326.256,89.345 326.391,114.700 326.394 L 160.800 326.400 160.800 325.000 C 160.800 323.786,160.928 323.600,161.767 323.600 C 163.936 323.600,164.000 323.456,164.000 318.557 C 164.000 314.069,163.986 314.000,163.080 314.000 C 161.862 314.000,161.200 313.283,161.200 311.963 C 161.200 311.170,160.955 310.825,160.269 310.653 C 159.275 310.404,158.404 308.928,158.395 307.481 C 158.381 305.248,158.010 304.842,155.542 304.357 C 153.662 303.987,152.971 303.633,152.198 302.645 L 151.224 301.400 115.112 301.200 C 76.393 300.986,77.707 301.057,76.063 299.076 C 75.800 298.759,74.769 298.271,73.773 297.992 C 72.464 297.626,71.797 297.168,71.371 296.344 C 71.046 295.716,70.180 294.951,69.445 294.644 C 68.581 294.283,68.016 293.720,67.848 293.050 C 67.705 292.481,67.077 291.750,66.452 291.427 C 65.607 290.990,65.182 290.346,64.799 288.919 C 64.516 287.864,63.740 286.420,63.075 285.712 L 61.866 284.424 61.515 277.312 C 61.323 273.400,61.219 235.820,61.286 193.800 C 61.415 111.966,61.303 116.221,63.391 114.000 C 63.908 113.450,64.537 112.220,64.789 111.268 C 65.107 110.070,65.593 109.337,66.364 108.895 C 66.978 108.543,67.672 107.744,67.908 107.120 C 68.179 106.402,68.861 105.766,69.768 105.388 C 70.556 105.059,71.200 104.550,71.200 104.257 C 71.200 103.465,72.383 102.610,74.329 101.998 C 75.280 101.698,76.270 101.157,76.529 100.795 C 77.834 98.972,75.491 99.031,152.000 98.905 C 237.009 98.765,317.515 99.259,319.564 99.933 C 320.314 100.179,321.304 100.718,321.764 101.131 C 322.224 101.543,323.427 102.103,324.438 102.375 C 325.529 102.668,326.965 103.499,327.970 104.418 C 328.902 105.270,330.012 106.077,330.437 106.212 C 330.861 106.346,331.480 106.982,331.812 107.623 C 332.144 108.264,332.935 109.381,333.570 110.105 C 334.206 110.829,335.025 112.451,335.391 113.710 C 335.757 114.970,336.185 116.000,336.342 116.000 C 336.499 116.000,336.981 116.585,337.414 117.300 C 338.187 118.579,338.202 119.888,338.323 198.800 C 338.452 283.472,338.477 282.237,336.611 283.989 C 336.086 284.483,335.538 285.581,335.395 286.429 C 335.252 287.277,334.607 288.653,333.961 289.486 C 333.316 290.319,332.409 291.592,331.946 292.315 C 331.483 293.038,330.597 293.891,329.977 294.212 C 329.358 294.532,328.176 295.413,327.351 296.168 C 326.483 296.964,325.082 297.735,324.025 298.000 C 323.021 298.251,321.822 298.810,321.360 299.242 C 319.856 300.647,316.387 300.812,282.233 301.109 C 254.298 301.351,248.636 301.492,248.483 301.950 C 248.090 303.129,246.830 303.890,244.515 304.345 L 242.100 304.821 241.827 306.879 C 241.497 309.370,241.058 310.264,240.000 310.600 C 239.552 310.742,239.200 311.205,239.200 311.653 C 239.200 313.113,238.439 314.000,237.186 314.000 L 236.000 314.000 236.000 318.557 C 236.000 323.456,236.064 323.600,238.233 323.600 C 239.072 323.600,239.200 323.786,239.200 325.000 L 239.200 326.400 285.300 326.394 C 310.655 326.391,331.597 326.256,331.838 326.094 C 332.080 325.932,332.398 325.305,332.546 324.700 C 332.797 323.675,332.959 323.600,334.908 323.595 C 338.118 323.586,338.744 323.308,339.035 321.756 C 339.258 320.564,339.441 320.397,340.545 320.377 C 342.723 320.338,344.545 319.497,344.799 318.413 C 344.968 317.690,345.387 317.354,346.367 317.153 C 347.846 316.851,348.385 316.252,348.394 314.900 C 348.399 314.145,348.618 314.000,349.757 314.000 C 351.191 314.000,351.600 313.504,351.600 311.767 C 351.600 310.957,351.797 310.800,352.813 310.800 C 354.034 310.800,354.143 310.672,354.564 308.740 C 354.715 308.047,355.185 307.544,355.920 307.288 C 357.097 306.878,358.000 304.865,358.000 302.654 C 358.000 301.882,358.205 301.600,358.767 301.600 C 360.594 301.600,360.800 301.252,360.800 298.157 C 360.800 295.359,360.848 295.200,361.700 295.194 C 363.966 295.178,363.800 302.711,363.800 200.000 C 363.800 97.289,363.966 104.822,361.700 104.806 C 360.848 104.800,360.800 104.641,360.800 101.843 C 360.800 98.748,360.594 98.400,358.767 98.400 C 358.197 98.400,357.999 98.117,357.998 97.300 C 357.993 94.949,357.190 93.127,355.952 92.660 C 355.197 92.375,354.689 91.848,354.551 91.206 C 354.147 89.337,354.028 89.200,352.813 89.200 C 351.797 89.200,351.600 89.043,351.600 88.233 C 351.600 86.496,351.191 86.000,349.757 86.000 C 348.522 86.000,348.400 85.894,348.400 84.824 C 348.400 83.520,348.046 83.190,346.250 82.823 C 345.386 82.646,344.962 82.285,344.799 81.587 C 344.543 80.497,342.720 79.661,340.511 79.623 C 339.400 79.603,339.177 79.421,338.888 78.300 C 338.563 77.034,338.479 76.991,335.707 76.648 C 333.099 76.326,332.839 76.209,332.599 75.252 C 332.454 74.678,332.126 74.074,331.868 73.910 C 331.256 73.521,68.744 73.521,68.132 73.910 M185.600 302.138 C 185.600 303.084,184.263 303.904,181.949 304.377 L 179.698 304.836 179.441 306.774 C 179.172 308.802,177.946 310.800,176.971 310.800 C 176.612 310.800,176.400 311.216,176.400 311.920 C 176.400 313.280,175.749 314.000,174.520 314.000 C 173.614 314.000,173.600 314.069,173.600 318.557 C 173.600 323.361,173.694 323.600,175.590 323.600 C 176.353 323.600,176.800 324.351,176.800 325.633 C 176.800 326.380,177.396 326.400,199.957 326.400 C 225.023 326.400,223.600 326.522,223.600 324.367 C 223.600 323.878,223.878 323.600,224.367 323.600 C 226.311 323.600,226.400 323.379,226.400 318.557 L 226.400 314.000 225.414 314.000 C 224.361 314.000,223.600 313.004,223.600 311.626 C 223.600 311.164,223.340 310.800,223.009 310.800 C 222.158 310.800,221.299 309.300,220.789 306.922 C 220.346 304.855,220.345 304.854,218.342 304.425 C 215.798 303.879,214.918 303.403,214.600 302.400 C 214.274 301.372,185.600 301.112,185.600 302.138 " stroke="none" fill="#040404" fill-rule="evenodd"></path><path id="path5" d="M115.000 99.991 C 78.630 100.212,78.914 100.197,77.827 101.956 C 77.704 102.156,76.694 102.646,75.582 103.045 C 72.703 104.081,66.827 109.827,65.802 112.610 C 65.398 113.704,64.633 115.192,64.102 115.916 C 62.485 118.117,62.422 121.257,62.418 200.200 C 62.414 279.270,62.464 281.679,64.142 284.153 C 64.695 284.967,65.433 286.481,65.782 287.517 C 66.201 288.758,67.165 290.149,68.612 291.600 C 72.315 295.313,73.290 296.086,75.586 297.131 C 76.803 297.685,78.310 298.512,78.933 298.969 C 80.055 299.791,80.431 299.802,114.533 300.000 C 133.490 300.110,149.225 300.346,149.500 300.524 C 150.270 301.022,150.092 300.207,149.269 299.462 C 148.600 298.857,145.650 298.800,115.069 298.800 C 95.366 298.800,81.600 298.651,81.600 298.438 C 81.600 297.868,78.352 296.135,76.736 295.842 C 75.789 295.671,74.709 295.015,73.683 293.989 C 72.809 293.115,71.731 292.400,71.286 292.400 C 70.740 292.400,70.336 291.993,70.039 291.140 C 69.798 290.448,68.970 289.269,68.200 288.521 C 67.208 287.558,66.800 286.809,66.800 285.952 C 66.800 284.703,65.003 281.200,64.362 281.200 C 64.147 281.200,64.000 248.327,64.000 200.358 L 64.000 119.515 65.205 117.993 C 65.890 117.128,66.562 115.662,66.761 114.598 C 67.008 113.276,67.535 112.290,68.555 111.246 C 69.350 110.432,70.000 109.495,70.000 109.163 C 70.000 108.361,70.798 107.600,71.640 107.600 C 72.014 107.600,72.966 106.954,73.755 106.165 C 74.698 105.222,75.885 104.547,77.217 104.195 C 78.333 103.901,79.910 103.152,80.723 102.530 L 82.200 101.400 115.444 101.293 C 148.017 101.189,148.703 101.171,149.406 100.393 C 149.801 99.957,149.961 99.641,149.762 99.691 C 149.563 99.742,133.920 99.877,115.000 99.991 " stroke="none" fill="#24246c" fill-rule="evenodd"></path><path id="path6" d="M83.400 99.196 C 78.392 99.462,77.313 99.713,76.529 100.800 C 76.270 101.159,75.280 101.698,74.329 101.998 C 72.383 102.610,71.200 103.465,71.200 104.257 C 71.200 104.550,70.556 105.059,69.768 105.388 C 68.861 105.766,68.179 106.402,67.908 107.120 C 67.672 107.744,66.978 108.543,66.364 108.895 C 65.593 109.337,65.107 110.070,64.789 111.268 C 64.537 112.220,63.908 113.450,63.391 114.000 C 61.303 116.221,61.415 111.966,61.286 193.800 C 61.219 235.820,61.323 273.400,61.515 277.312 L 61.866 284.424 63.075 285.712 C 63.740 286.420,64.516 287.864,64.799 288.919 C 65.182 290.346,65.607 290.990,66.452 291.427 C 67.077 291.750,67.705 292.481,67.848 293.050 C 68.016 293.720,68.581 294.283,69.445 294.644 C 70.180 294.951,71.046 295.716,71.371 296.344 C 71.797 297.168,72.464 297.626,73.773 297.992 C 74.769 298.271,75.800 298.759,76.063 299.076 C 77.707 301.057,76.393 300.986,115.112 301.200 L 151.224 301.400 152.198 302.645 C 152.973 303.635,153.661 303.987,155.560 304.360 C 157.215 304.686,158.002 305.040,158.127 305.515 C 158.271 306.062,158.317 306.036,158.354 305.383 C 158.390 304.742,158.022 304.465,156.648 304.097 C 155.684 303.839,154.364 303.182,153.715 302.636 C 150.738 300.130,152.358 300.239,114.533 300.009 C 80.438 299.802,80.054 299.791,78.933 298.969 C 78.310 298.512,76.803 297.685,75.586 297.131 C 73.290 296.086,72.315 295.313,68.612 291.600 C 67.165 290.149,66.201 288.758,65.782 287.517 C 65.433 286.481,64.695 284.967,64.142 284.153 C 62.464 281.679,62.414 279.270,62.418 200.200 C 62.422 121.257,62.485 118.117,64.102 115.916 C 64.633 115.192,65.398 113.704,65.802 112.610 C 66.827 109.827,72.703 104.081,75.582 103.045 C 76.694 102.646,77.704 102.156,77.827 101.956 C 78.909 100.205,78.658 100.219,115.400 99.861 C 158.530 99.442,270.870 99.455,297.800 99.882 L 317.800 100.200 320.400 101.465 C 321.830 102.161,323.765 103.044,324.700 103.426 C 325.635 103.809,326.400 104.261,326.400 104.432 C 326.400 104.603,327.280 105.313,328.355 106.010 C 330.496 107.397,333.828 111.666,334.678 114.111 C 334.967 114.941,335.698 116.561,336.302 117.711 L 337.400 119.800 337.400 200.000 L 337.400 280.200 335.900 283.204 C 335.075 284.855,334.400 286.458,334.400 286.764 C 334.400 288.637,327.485 295.652,324.400 296.910 C 323.850 297.134,322.230 297.876,320.800 298.559 L 318.200 299.800 303.000 300.052 C 294.640 300.190,279.880 300.325,270.200 300.351 C 252.628 300.398,247.200 300.797,247.200 302.044 C 247.200 302.476,244.998 303.668,243.205 304.205 C 242.037 304.555,241.773 304.849,241.582 306.011 C 241.347 307.450,240.150 309.600,239.586 309.600 C 239.409 309.600,239.142 310.185,238.993 310.900 C 238.843 311.615,238.465 312.605,238.152 313.100 C 237.838 313.595,237.759 314.000,237.977 314.000 C 238.500 314.000,239.200 312.656,239.200 311.653 C 239.200 311.205,239.552 310.742,240.000 310.600 C 241.058 310.264,241.497 309.370,241.827 306.879 L 242.100 304.821 244.515 304.345 C 246.830 303.890,248.090 303.129,248.483 301.950 C 248.636 301.492,254.298 301.351,282.233 301.109 C 316.387 300.812,319.856 300.647,321.360 299.242 C 321.822 298.810,323.021 298.251,324.025 298.000 C 325.082 297.735,326.483 296.964,327.351 296.168 C 328.176 295.413,329.358 294.532,329.977 294.212 C 330.597 293.891,331.483 293.038,331.946 292.315 C 332.409 291.592,333.316 290.319,333.961 289.486 C 334.607 288.653,335.252 287.277,335.395 286.429 C 335.538 285.581,336.086 284.483,336.611 283.989 C 338.477 282.237,338.452 283.472,338.323 198.800 C 338.202 119.888,338.187 118.579,337.414 117.300 C 336.981 116.585,336.499 116.000,336.342 116.000 C 336.185 116.000,335.757 114.970,335.391 113.710 C 335.025 112.451,334.206 110.829,333.570 110.105 C 332.935 109.381,332.144 108.264,331.812 107.623 C 331.480 106.982,330.861 106.346,330.437 106.212 C 330.012 106.077,328.902 105.270,327.970 104.418 C 326.965 103.499,325.529 102.668,324.438 102.375 C 323.427 102.103,322.224 101.543,321.764 101.131 C 319.942 99.496,319.462 99.474,280.000 99.180 C 233.352 98.833,90.036 98.845,83.400 99.196 M183.982 302.569 C 183.030 303.323,181.645 304.053,180.905 304.191 C 179.538 304.448,179.452 304.553,179.028 306.493 C 178.896 307.094,178.251 308.197,177.594 308.945 C 176.255 310.471,176.144 310.800,176.971 310.800 C 177.946 310.800,179.172 308.802,179.441 306.774 L 179.698 304.836 181.949 304.377 C 184.263 303.904,185.600 303.084,185.600 302.138 C 185.600 301.112,214.274 301.372,214.600 302.400 C 214.918 303.403,215.798 303.879,218.342 304.425 C 220.345 304.854,220.346 304.855,220.789 306.922 C 221.299 309.300,222.158 310.800,223.009 310.800 C 223.340 310.800,223.600 311.164,223.600 311.626 C 223.600 312.694,224.302 314.000,224.876 314.000 C 225.129 314.000,225.035 313.681,224.662 313.269 C 224.298 312.866,224.000 312.171,224.000 311.724 C 224.000 311.276,223.449 310.217,222.776 309.369 C 222.102 308.522,221.348 307.071,221.101 306.145 C 220.716 304.707,220.466 304.426,219.386 304.224 C 218.691 304.093,217.240 303.360,216.162 302.593 L 214.203 301.200 199.958 301.200 L 185.713 301.200 183.982 302.569 M158.401 307.481 C 158.399 308.812,159.227 310.355,160.091 310.629 C 161.125 310.957,161.558 310.451,160.750 309.860 C 160.393 309.599,159.719 308.759,159.252 307.993 C 158.531 306.810,158.403 306.733,158.401 307.481 M161.225 312.451 C 161.197 313.191,162.286 314.247,162.676 313.857 C 162.818 313.716,162.718 313.600,162.454 313.600 C 162.190 313.600,161.811 313.195,161.612 312.700 C 161.368 312.091,161.243 312.010,161.225 312.451 M176.032 312.480 C 176.014 312.854,175.685 313.344,175.300 313.568 C 174.915 313.792,174.803 313.981,175.051 313.988 C 175.711 314.006,176.509 312.909,176.269 312.313 C 176.137 311.983,176.052 312.042,176.032 312.480 " stroke="none" fill="#0c0c1c" fill-rule="evenodd"></path><path id="path7" d="" stroke="none" fill="#ccbc100" fill-rule="evenodd"></path><path id="path8" d="M250.713 99.672 C 251.091 99.821,259.680 99.918,269.800 99.887 C 279.920 99.856,286.310 99.780,284.000 99.718 C 274.159 99.456,250.082 99.422,250.713 99.672 M304.600 100.379 L 317.400 100.600 320.032 101.900 C 321.479 102.615,322.924 103.200,323.243 103.200 C 323.834 103.200,324.648 103.738,328.450 106.643 C 330.869 108.492,333.282 111.761,334.402 114.710 C 334.816 115.797,335.569 117.477,336.077 118.443 L 337.000 120.200 337.000 200.200 L 337.000 280.200 335.701 282.600 C 334.986 283.920,334.401 285.263,334.401 285.585 C 334.400 285.907,335.075 284.827,335.900 283.185 L 337.400 280.200 337.400 200.000 L 337.400 119.800 336.302 117.711 C 335.698 116.561,334.967 114.941,334.678 114.111 C 333.828 111.666,330.496 107.397,328.355 106.010 C 327.280 105.313,326.400 104.603,326.400 104.432 C 326.400 104.261,325.635 103.809,324.700 103.426 C 323.765 103.044,321.830 102.161,320.400 101.465 L 317.800 100.200 304.800 100.179 L 291.800 100.157 304.600 100.379 M334.032 286.609 C 333.964 287.482,329.899 292.590,328.684 293.329 C 327.978 293.758,326.704 294.705,325.853 295.433 C 325.002 296.161,323.742 296.880,323.053 297.030 C 322.364 297.180,320.909 297.767,319.820 298.335 C 318.731 298.903,317.111 299.501,316.220 299.665 L 314.600 299.963 316.400 299.842 C 317.390 299.775,319.370 299.180,320.800 298.519 C 322.230 297.858,323.850 297.134,324.400 296.910 C 327.648 295.586,334.846 288.148,334.269 286.712 C 334.156 286.430,334.049 286.384,334.032 286.609 M288.307 300.290 C 289.026 300.379,290.106 300.377,290.707 300.286 C 291.308 300.195,290.720 300.122,289.400 300.124 C 288.080 300.126,287.588 300.201,288.307 300.290 M193.700 301.099 C 197.165 301.166,202.835 301.166,206.300 301.099 C 209.765 301.033,206.930 300.978,200.000 300.978 C 193.070 300.978,190.235 301.033,193.700 301.099 M153.372 302.378 C 154.831 303.537,157.470 304.664,157.845 304.288 C 157.951 304.182,157.569 303.979,156.997 303.835 C 156.425 303.691,155.220 303.040,154.319 302.387 C 152.196 300.849,151.440 300.842,153.372 302.378 M183.434 302.373 C 182.623 303.018,181.430 303.662,180.784 303.804 C 180.138 303.945,179.518 304.208,179.408 304.388 C 179.297 304.567,179.925 304.502,180.803 304.242 C 182.337 303.789,186.188 301.200,185.328 301.200 C 185.098 301.200,184.246 301.728,183.434 302.373 M215.622 302.242 C 217.144 303.394,219.293 304.417,220.087 304.368 C 220.369 304.351,220.060 304.145,219.400 303.910 C 218.740 303.675,217.609 302.969,216.886 302.341 C 216.163 301.714,215.273 301.200,214.908 301.200 C 214.473 301.200,214.718 301.558,215.622 302.242 M245.834 302.373 C 245.023 303.018,243.830 303.662,243.184 303.804 C 242.538 303.945,241.918 304.208,241.808 304.388 C 241.535 304.829,244.288 303.949,245.900 303.080 C 246.615 302.695,247.200 302.217,247.200 302.019 C 247.200 301.821,247.515 301.576,247.900 301.476 C 248.481 301.324,248.490 301.285,247.955 301.246 C 247.600 301.221,246.646 301.728,245.834 302.373 M220.832 305.113 C 220.777 305.993,221.941 308.415,223.053 309.736 C 224.044 310.914,224.096 310.932,223.814 310.000 C 223.647 309.450,223.103 308.550,222.605 308.000 C 222.107 307.450,221.512 306.460,221.281 305.800 C 221.051 305.140,220.849 304.831,220.832 305.113 M158.409 305.746 C 158.397 306.705,159.964 309.501,160.663 309.769 C 161.414 310.057,161.334 309.408,160.537 308.749 C 160.172 308.447,159.546 307.480,159.145 306.600 C 158.730 305.686,158.414 305.320,158.409 305.746 M178.495 306.484 C 178.217 307.255,177.632 308.209,177.195 308.605 C 176.758 309.000,176.400 309.504,176.400 309.724 C 176.400 310.340,178.010 308.740,178.665 307.474 C 178.986 306.854,179.192 306.062,179.124 305.715 C 179.053 305.351,178.786 305.676,178.495 306.484 M241.232 306.245 C 241.214 306.490,240.660 307.369,240.000 308.200 C 239.340 309.031,238.821 310.000,238.846 310.355 C 238.885 310.890,238.924 310.881,239.076 310.300 C 239.176 309.915,239.411 309.600,239.597 309.600 C 240.132 309.600,241.688 306.852,241.465 306.299 C 241.342 305.996,241.251 305.975,241.232 306.245 M175.730 311.871 C 175.471 312.708,175.331 313.464,175.418 313.552 C 175.671 313.804,176.445 311.523,176.316 310.906 C 176.252 310.600,175.988 311.034,175.730 311.871 " stroke="none" fill="#102c0c" fill-rule="evenodd"></path></g></svg>