<svg id="svg" version="1.1" xmlns="http://www.w3.org/2000/svg" xmlns:xlink="http://www.w3.org/1999/xlink" width="400" height="400" viewBox="0, 0, 400,400"><g id="svgg"><path id="path0" d="M213.817 125.572 C 213.273 126.453,213.386 174.386,213.933 174.596 C 215.826 175.322,312.900 174.774,312.236 174.040 C 311.272 172.974,310.531 169.926,309.602 163.200 C 308.779 157.244,308.408 155.389,307.670 153.534 C 307.437 152.948,306.879 150.535,306.432 148.173 C 305.984 145.811,305.238 143.151,304.775 142.261 C 304.311 141.372,303.672 139.284,303.354 137.622 C 303.036 135.960,302.210 133.520,301.517 132.200 C 300.551 130.358,300.252 129.266,300.229 127.502 L 300.200 125.205 257.124 125.202 C 231.002 125.201,213.957 125.346,213.817 125.572 M138.023 200.700 C 79.611 200.781,64.180 200.906,63.929 201.301 C 63.755 201.575,63.609 212.645,63.606 225.900 L 63.600 250.000 186.027 250.000 C 304.990 250.000,308.447 249.979,308.219 249.260 C 308.090 248.852,308.242 247.367,308.557 245.960 C 308.873 244.552,309.338 241.510,309.590 239.200 C 309.843 236.890,310.476 233.380,310.996 231.400 C 312.211 226.781,312.300 225.883,312.805 213.200 C 313.037 207.370,313.306 202.105,313.404 201.500 L 313.580 200.400 262.690 200.499 C 234.701 200.553,178.600 200.644,138.023 200.700 M63.842 276.906 C 63.979 277.838,64.506 279.230,65.013 280.000 C 66.028 281.543,66.794 283.994,66.798 285.709 C 66.799 286.493,67.084 286.947,67.773 287.260 C 68.308 287.504,68.959 288.218,69.220 288.848 C 69.757 290.146,72.167 292.452,73.948 293.373 C 74.605 293.713,75.258 294.353,75.398 294.795 C 75.539 295.239,76.133 295.698,76.727 295.822 C 80.546 296.619,81.567 296.963,82.965 297.924 L 84.531 299.000 120.765 299.214 C 140.694 299.332,157.069 299.467,157.154 299.514 C 159.914 301.056,163.598 306.636,163.604 309.287 C 163.607 310.229,163.720 311.675,163.857 312.500 L 164.105 314.000 168.806 314.000 C 174.073 314.000,173.982 314.057,173.995 310.720 C 174.008 307.206,174.768 305.290,177.135 302.809 C 180.727 299.045,179.737 299.200,200.200 299.200 C 220.657 299.200,219.402 298.996,223.060 302.911 C 225.677 305.712,225.696 305.762,226.212 311.300 L 226.464 314.000 231.185 314.000 C 236.476 314.000,236.382 314.059,236.395 310.720 C 236.407 307.225,237.120 305.496,239.633 302.864 C 243.336 298.984,241.836 299.201,265.087 299.196 C 290.497 299.190,288.907 299.532,290.993 293.620 C 291.317 292.700,291.950 291.481,292.399 290.911 C 292.847 290.341,293.485 288.941,293.817 287.802 C 294.148 286.662,294.869 285.119,295.420 284.373 C 295.970 283.627,296.778 281.817,297.214 280.352 C 297.746 278.567,298.427 277.277,299.278 276.446 L 300.548 275.204 182.070 275.208 L 63.592 275.212 63.842 276.906 " stroke="none" fill="#eb1c23" fill-rule="evenodd"></path><path id="path1" d="M68.132 73.910 C 67.874 74.074,67.543 74.687,67.396 75.273 C 67.145 76.272,66.944 76.356,64.164 76.616 L 61.200 76.894 61.200 78.190 C 61.200 79.483,61.194 79.487,58.741 79.743 C 56.010 80.029,55.394 80.373,55.032 81.816 C 54.855 82.521,54.511 82.800,53.821 82.800 C 52.585 82.800,51.600 83.789,51.600 85.029 C 51.600 85.866,51.413 86.000,50.243 86.000 C 48.815 86.000,48.400 86.497,48.400 88.207 C 48.400 88.978,48.163 89.172,47.100 89.275 C 45.950 89.386,45.785 89.553,45.672 90.732 C 45.569 91.807,45.290 92.170,44.223 92.616 C 42.781 93.219,42.414 94.043,42.405 96.700 C 42.401 98.150,42.278 98.400,41.574 98.400 C 39.626 98.400,39.200 99.049,39.200 102.014 C 39.200 104.697,39.164 104.800,38.229 104.800 C 35.811 104.800,35.985 97.018,36.098 200.246 C 36.209 302.666,36.035 295.178,38.300 295.194 C 39.147 295.200,39.200 295.365,39.200 297.986 C 39.200 300.951,39.626 301.600,41.574 301.600 C 42.309 301.600,42.400 301.843,42.400 303.800 C 42.400 306.083,43.275 307.600,44.592 307.600 C 44.918 307.600,45.293 308.095,45.426 308.700 C 45.859 310.678,45.961 310.800,47.187 310.800 C 48.203 310.800,48.400 310.957,48.400 311.767 C 48.400 313.504,48.809 314.000,50.243 314.000 C 51.382 314.000,51.601 314.145,51.606 314.900 C 51.615 316.252,52.154 316.851,53.633 317.153 C 54.613 317.354,55.032 317.690,55.201 318.413 C 55.455 319.497,57.277 320.338,59.457 320.377 C 60.723 320.400,61.200 320.950,61.200 322.386 C 61.200 323.254,62.273 323.587,65.092 323.595 C 67.041 323.600,67.203 323.675,67.454 324.700 C 67.602 325.305,67.920 325.932,68.162 326.094 C 68.403 326.256,89.345 326.391,114.700 326.394 L 160.800 326.400 160.800 325.000 C 160.800 323.786,160.928 323.600,161.767 323.600 C 163.926 323.600,164.000 323.440,164.000 318.738 C 164.000 314.529,163.961 314.328,162.967 313.473 C 162.162 312.781,161.871 312.058,161.647 310.193 C 161.329 307.547,161.215 307.386,155.895 302.098 L 154.790 301.000 118.295 300.800 C 79.915 300.590,79.700 300.579,78.644 298.872 C 78.505 298.646,77.808 298.340,77.095 298.192 C 75.633 297.887,72.400 296.134,72.400 295.646 C 72.400 295.470,71.761 294.983,70.980 294.563 C 69.091 293.548,65.403 288.675,64.803 286.400 C 64.542 285.410,63.980 284.224,63.555 283.764 C 61.837 281.909,61.837 281.893,61.697 241.041 C 61.590 209.638,61.666 201.635,62.082 200.641 C 62.490 199.664,62.643 190.960,62.800 159.800 C 62.990 122.216,63.038 120.131,63.741 118.840 C 64.149 118.092,64.968 116.287,65.562 114.828 C 67.605 109.807,72.843 104.513,77.276 102.988 C 78.224 102.662,79.990 101.902,81.200 101.298 L 83.400 100.200 148.200 99.897 C 183.840 99.730,227.760 99.504,245.800 99.395 C 263.840 99.286,287.785 99.334,299.012 99.502 L 319.424 99.808 321.380 101.104 C 322.457 101.817,323.597 102.400,323.914 102.400 C 324.630 102.400,327.600 104.041,327.600 104.437 C 327.600 104.596,328.410 105.238,329.399 105.863 C 330.389 106.488,331.199 107.104,331.199 107.230 C 331.200 107.357,331.983 108.468,332.940 109.701 C 333.897 110.933,334.907 112.752,335.184 113.743 C 335.461 114.733,336.003 115.882,336.388 116.294 C 338.087 118.119,338.052 116.454,338.110 199.489 C 338.167 282.840,338.204 281.000,336.458 283.248 C 336.051 283.772,335.419 285.110,335.053 286.222 C 334.316 288.462,330.852 293.333,329.480 294.059 C 328.996 294.315,327.848 295.137,326.929 295.886 C 326.010 296.635,324.570 297.432,323.729 297.657 C 322.888 297.882,321.509 298.537,320.664 299.113 C 318.747 300.418,320.106 300.367,277.767 300.727 L 245.733 301.000 244.253 302.300 C 243.438 303.015,242.616 303.600,242.426 303.600 C 242.235 303.600,241.683 304.271,241.200 305.090 C 240.716 305.910,240.000 306.805,239.607 307.080 C 239.180 307.379,238.788 308.345,238.629 309.490 C 238.265 312.116,237.653 313.529,236.757 313.814 C 236.073 314.031,236.000 314.491,236.000 318.584 C 236.000 323.454,236.065 323.600,238.233 323.600 C 239.072 323.600,239.200 323.786,239.200 325.000 L 239.200 326.400 285.300 326.394 C 310.655 326.391,331.597 326.256,331.838 326.094 C 332.080 325.932,332.398 325.305,332.546 324.700 C 332.797 323.675,332.959 323.600,334.908 323.595 C 338.118 323.586,338.744 323.308,339.035 321.756 C 339.258 320.564,339.441 320.397,340.545 320.377 C 342.723 320.338,344.545 319.497,344.799 318.413 C 344.968 317.690,345.387 317.354,346.367 317.153 C 347.846 316.851,348.385 316.252,348.394 314.900 C 348.399 314.145,348.618 314.000,349.757 314.000 C 351.191 314.000,351.600 313.504,351.600 311.767 C 351.600 310.957,351.797 310.800,352.813 310.800 C 354.034 310.800,354.143 310.672,354.564 308.740 C 354.715 308.047,355.185 307.544,355.920 307.288 C 357.097 306.878,358.000 304.865,358.000 302.654 C 358.000 301.882,358.205 301.600,358.767 301.600 C 360.594 301.600,360.800 301.252,360.800 298.157 C 360.800 295.359,360.848 295.200,361.700 295.194 C 363.966 295.178,363.800 302.711,363.800 200.000 C 363.800 97.289,363.966 104.822,361.700 104.806 C 360.848 104.800,360.800 104.641,360.800 101.843 C 360.800 98.748,360.594 98.400,358.767 98.400 C 358.197 98.400,357.999 98.117,357.998 97.300 C 357.993 94.949,357.190 93.127,355.952 92.660 C 355.197 92.375,354.689 91.848,354.551 91.206 C 354.147 89.337,354.028 89.200,352.813 89.200 C 351.797 89.200,351.600 89.043,351.600 88.233 C 351.600 86.496,351.191 86.000,349.757 86.000 C 348.522 86.000,348.400 85.894,348.400 84.824 C 348.400 83.520,348.046 83.190,346.250 82.823 C 345.386 82.646,344.962 82.285,344.799 81.587 C 344.543 80.497,342.720 79.661,340.511 79.623 C 339.400 79.603,339.177 79.421,338.888 78.300 C 338.563 77.034,338.479 76.991,335.707 76.648 C 333.099 76.326,332.839 76.209,332.599 75.252 C 332.454 74.678,332.126 74.074,331.868 73.910 C 331.256 73.521,68.744 73.521,68.132 73.910 M183.701 301.077 C 182.986 301.173,182.225 301.579,182.011 301.980 C 181.796 302.381,180.983 303.085,180.204 303.545 C 179.425 304.004,178.622 304.817,178.419 305.350 C 178.216 305.883,177.647 306.602,177.153 306.948 C 176.459 307.434,176.189 308.143,175.961 310.081 C 175.727 312.063,175.450 312.770,174.633 313.473 C 173.639 314.328,173.600 314.529,173.600 318.738 C 173.600 323.346,173.704 323.600,175.590 323.600 C 176.353 323.600,176.800 324.351,176.800 325.633 C 176.800 326.380,177.396 326.400,199.957 326.400 C 225.023 326.400,223.600 326.522,223.600 324.367 C 223.600 323.878,223.878 323.600,224.367 323.600 C 226.299 323.600,226.400 323.361,226.400 318.775 C 226.400 314.748,226.332 314.368,225.455 313.492 C 224.778 312.814,224.429 311.875,224.222 310.173 C 224.016 308.485,223.657 307.511,222.977 306.800 C 221.997 305.775,220.251 304.019,218.295 302.090 L 217.190 301.000 201.095 300.952 C 192.243 300.925,184.415 300.982,183.701 301.077 " stroke="none" fill="#040404" fill-rule="evenodd"></path><path id="path2" d="M213.381 101.706 C 213.274 101.984,213.235 107.159,213.293 113.206 L 213.400 124.200 254.869 124.302 C 297.359 124.406,298.809 124.359,298.186 122.894 C 298.024 122.512,297.559 121.045,297.152 119.633 C 296.746 118.221,296.038 116.666,295.579 116.177 C 295.119 115.688,294.396 114.172,293.971 112.806 C 293.546 111.441,292.836 109.863,292.392 109.299 C 291.949 108.735,291.306 107.311,290.964 106.135 C 290.600 104.884,289.794 103.415,289.024 102.598 L 287.706 101.200 250.640 101.200 C 221.135 101.200,213.535 101.303,213.381 101.706 M175.667 117.653 C 174.982 118.842,174.477 119.223,173.298 119.438 C 172.474 119.589,171.365 119.874,170.833 120.071 L 169.866 120.431 170.775 121.068 C 172.030 121.946,172.683 123.706,173.018 127.107 C 173.339 130.361,173.356 130.381,174.635 129.000 C 175.465 128.104,175.875 128.000,178.572 128.000 C 181.997 128.000,182.542 127.570,183.255 124.308 C 183.460 123.369,183.998 122.091,184.449 121.469 C 185.418 120.133,185.530 120.281,182.900 119.422 C 181.745 119.045,180.566 118.402,180.281 117.994 C 179.995 117.585,179.035 117.002,178.149 116.696 L 176.537 116.141 175.667 117.653 M134.786 117.987 C 133.693 119.177,132.998 119.554,131.500 119.772 C 129.314 120.091,129.244 120.205,130.590 121.264 C 131.677 122.119,132.198 123.720,132.602 127.449 L 132.867 129.897 133.815 128.949 C 134.654 128.110,135.132 128.000,137.933 128.000 C 141.587 128.000,141.654 127.951,142.607 124.600 C 142.983 123.280,143.630 121.828,144.045 121.374 C 145.090 120.231,145.042 120.156,142.941 119.627 C 141.869 119.357,140.642 118.689,140.041 118.047 C 138.300 116.187,136.460 116.166,134.786 117.987 M94.802 117.596 C 94.281 118.570,92.666 119.439,90.686 119.810 C 89.366 120.058,88.556 120.800,89.606 120.800 C 90.565 120.800,91.544 123.395,91.816 126.654 C 92.123 130.340,92.153 130.393,93.200 129.100 C 93.864 128.280,94.269 128.200,97.763 128.200 C 101.330 128.200,101.599 128.144,101.604 127.400 C 101.615 125.792,102.775 122.278,103.577 121.425 C 104.719 120.208,104.635 120.047,102.700 119.740 C 101.536 119.556,100.577 119.049,99.660 118.135 C 98.033 116.514,95.530 116.236,94.802 117.596 M175.633 145.226 C 174.619 147.032,174.056 147.398,171.702 147.788 C 169.533 148.148,169.267 148.607,170.775 149.387 C 172.288 150.169,172.800 151.121,172.800 153.148 C 172.800 155.646,173.415 156.927,174.370 156.416 C 174.798 156.187,176.469 156.000,178.085 156.000 C 181.617 156.000,182.664 155.423,183.007 153.289 C 183.461 150.461,183.581 150.197,184.764 149.413 L 185.952 148.626 183.676 147.711 C 182.424 147.208,181.040 146.375,180.600 145.861 C 180.160 145.347,179.061 144.640,178.159 144.290 L 176.517 143.653 175.633 145.226 M94.351 145.547 C 93.537 146.727,92.865 147.185,91.351 147.593 C 88.912 148.249,88.494 148.608,89.526 149.160 C 91.036 149.968,91.600 150.844,91.600 152.379 C 91.600 153.215,91.703 154.418,91.829 155.050 L 92.059 156.200 96.529 156.074 C 101.583 155.931,102.000 155.704,102.000 153.097 C 102.000 151.135,102.528 150.154,104.096 149.200 L 105.341 148.443 102.808 147.738 C 100.722 147.158,100.138 146.802,99.498 145.717 C 98.911 144.723,98.445 144.400,97.593 144.400 C 96.973 144.400,96.226 144.316,95.933 144.214 C 95.634 144.109,94.938 144.696,94.351 145.547 M135.053 145.353 C 134.272 146.804,133.313 147.392,131.031 147.821 C 129.064 148.190,128.957 148.585,130.558 149.574 C 132.134 150.548,132.385 151.050,132.440 153.333 C 132.493 155.570,132.941 157.142,133.341 156.496 C 133.549 156.159,134.838 156.000,137.362 156.000 C 141.553 156.000,142.400 155.544,142.400 153.287 C 142.400 151.552,143.031 150.350,144.477 149.327 L 145.712 148.455 143.471 147.804 C 141.983 147.371,140.891 146.749,140.219 145.949 C 139.336 144.900,137.478 144.000,136.194 144.000 C 135.967 144.000,135.454 144.609,135.053 145.353 M175.605 172.877 C 174.940 174.060,174.185 174.682,172.517 175.420 L 170.311 176.396 171.555 177.558 C 172.628 178.561,172.800 178.998,172.800 180.728 C 172.800 184.141,173.432 184.336,181.400 183.372 L 183.000 183.179 183.000 181.015 C 183.000 179.211,183.179 178.665,184.079 177.726 L 185.158 176.600 183.784 175.700 C 183.029 175.205,182.244 174.800,182.039 174.800 C 181.834 174.800,181.322 174.326,180.900 173.747 C 180.478 173.168,179.312 172.383,178.309 172.002 L 176.486 171.310 175.605 172.877 M135.240 172.640 C 134.778 173.227,134.400 173.869,134.400 174.065 C 134.400 174.262,133.293 174.903,131.941 175.489 C 129.846 176.398,129.599 176.608,130.273 176.909 C 131.452 177.435,132.400 179.316,132.400 181.129 C 132.400 183.858,132.389 183.851,136.711 183.700 C 142.510 183.497,142.400 183.545,142.400 181.206 C 142.400 179.582,142.613 178.985,143.590 177.872 L 144.781 176.517 142.779 175.427 C 141.678 174.828,140.503 173.919,140.168 173.407 C 139.832 172.895,139.072 172.360,138.479 172.219 C 137.886 172.078,137.103 171.874,136.740 171.767 C 136.341 171.649,135.748 171.994,135.240 172.640 M94.392 173.211 C 93.918 173.877,92.625 174.881,91.519 175.441 L 89.508 176.460 90.554 177.552 C 91.418 178.454,91.601 179.023,91.606 180.822 C 91.615 183.863,91.545 183.827,97.000 183.600 L 101.800 183.400 101.919 181.122 C 102.017 179.266,102.249 178.618,103.173 177.629 L 104.308 176.414 102.254 175.440 C 101.009 174.849,99.915 173.980,99.477 173.233 C 98.424 171.435,95.665 171.423,94.392 173.211 M213.680 176.080 C 213.330 176.430,213.200 179.547,213.200 187.600 C 213.200 195.653,213.330 198.770,213.680 199.120 C 214.385 199.825,310.691 199.815,312.239 199.109 L 313.317 198.618 313.050 192.009 C 312.903 188.374,312.670 183.384,312.532 180.920 L 312.280 176.441 310.321 176.020 C 307.344 175.382,214.321 175.439,213.680 176.080 M63.782 251.303 C 63.675 251.582,63.635 256.848,63.694 263.005 L 63.800 274.200 180.600 274.313 C 244.840 274.375,297.957 274.327,298.639 274.206 C 299.683 274.021,299.956 273.722,300.377 272.293 C 300.652 271.362,301.222 270.035,301.643 269.345 C 302.065 268.655,302.768 266.675,303.205 264.945 C 303.643 263.215,304.445 260.799,304.988 259.576 C 306.073 257.135,307.141 251.808,306.646 251.313 C 306.067 250.734,64.004 250.725,63.782 251.303 " stroke="none" fill="#f6f7fb" fill-rule="evenodd"></path><path id="path3" d="M83.875 100.417 C 82.816 100.595,81.493 101.040,80.935 101.406 C 80.377 101.771,78.942 102.407,77.746 102.818 C 72.867 104.497,67.689 109.600,65.562 114.828 C 64.968 116.287,64.149 118.092,63.741 118.840 C 63.036 120.134,62.995 122.108,62.890 159.387 C 62.781 198.616,62.812 200.148,63.693 199.267 C 64.046 198.914,82.178 198.800,137.680 198.800 L 211.200 198.800 211.200 150.131 C 211.200 105.406,211.254 101.404,211.862 100.731 C 212.575 99.944,88.507 99.639,83.875 100.417 M100.087 112.810 C 100.465 113.276,100.884 114.319,101.018 115.129 C 101.431 117.614,101.413 117.600,103.959 117.600 C 108.029 117.600,109.167 120.871,106.104 123.761 C 104.653 125.130,104.603 125.271,104.462 128.372 C 104.270 132.592,104.405 132.513,97.282 132.602 C 89.757 132.695,89.766 132.701,89.523 128.495 C 89.346 125.442,89.291 125.294,87.810 123.937 C 84.700 121.087,85.648 117.929,89.712 117.600 L 92.185 117.400 92.671 115.201 C 93.476 111.565,97.917 110.133,100.087 112.810 M140.649 112.966 C 141.116 113.494,141.622 114.753,141.774 115.763 L 142.049 117.600 144.425 117.600 C 148.694 117.600,150.112 121.475,146.600 123.547 C 145.299 124.315,145.284 124.358,145.143 127.747 C 144.941 132.595,145.105 132.494,137.390 132.533 C 129.903 132.572,130.000 132.629,130.000 128.151 C 130.000 125.745,129.881 125.216,129.300 125.028 C 128.096 124.638,126.800 122.294,126.800 120.504 C 126.800 118.267,127.562 117.601,130.129 117.594 C 132.794 117.586,133.025 117.399,133.337 115.000 C 133.795 111.476,138.237 110.241,140.649 112.966 M179.321 112.027 C 181.002 112.494,182.159 113.991,182.582 116.247 C 182.835 117.594,182.846 117.600,185.087 117.600 C 189.467 117.600,190.454 121.600,186.619 123.809 C 186.054 124.135,185.855 124.971,185.648 127.895 C 185.310 132.677,185.582 132.499,178.525 132.568 C 170.903 132.643,169.815 132.123,170.680 128.814 C 171.030 127.476,170.434 125.265,169.657 125.018 C 166.254 123.938,166.646 117.643,170.123 117.560 C 172.418 117.506,173.781 117.077,173.871 116.382 C 174.490 111.607,175.346 110.923,179.321 112.027 M99.335 139.975 C 99.935 140.203,100.495 140.875,100.764 141.690 C 101.282 143.261,103.611 145.598,104.666 145.605 C 108.002 145.630,109.100 149.821,106.119 151.155 C 104.705 151.788,104.403 152.732,104.394 156.550 C 104.385 160.233,103.108 161.279,99.893 160.237 C 97.599 159.494,95.200 159.172,95.200 159.606 C 95.200 160.255,92.412 160.785,91.274 160.352 C 89.863 159.816,89.613 159.337,89.606 157.156 C 89.593 153.086,89.192 151.662,87.987 151.397 C 84.861 150.711,85.703 145.600,88.943 145.600 C 90.205 145.600,92.191 143.645,92.799 141.803 C 93.495 139.695,96.435 138.873,99.335 139.975 M139.600 139.948 C 140.226 140.116,140.899 140.813,141.400 141.812 C 142.536 144.077,144.080 145.443,145.825 145.727 C 149.117 146.261,149.416 150.678,146.200 151.263 C 145.484 151.393,145.376 151.818,145.170 155.320 C 144.879 160.279,143.116 161.819,139.721 160.082 C 138.183 159.295,136.290 159.176,135.576 159.821 C 132.890 162.253,130.272 160.263,130.005 155.587 L 129.800 151.993 128.400 151.297 C 125.625 149.916,126.482 145.600,129.531 145.600 C 130.072 145.600,130.825 145.167,131.271 144.600 C 131.704 144.050,132.315 143.600,132.629 143.600 C 132.943 143.600,133.200 143.228,133.200 142.774 C 133.200 140.041,135.750 138.915,139.600 139.948 M180.189 140.170 C 181.049 140.529,181.854 141.305,182.367 142.270 C 183.642 144.665,184.500 145.447,186.146 145.714 C 189.478 146.254,190.091 150.313,186.966 151.144 L 185.800 151.454 185.600 155.315 C 185.300 161.101,184.167 161.640,177.412 159.213 C 176.867 159.017,176.426 159.173,175.984 159.719 C 175.258 160.616,172.396 160.827,171.463 160.052 C 171.109 159.759,170.835 158.351,170.695 156.113 C 170.505 153.058,170.363 152.545,169.539 151.936 C 167.530 150.449,167.200 149.979,167.200 148.600 C 167.200 146.860,168.370 145.600,169.986 145.600 C 170.749 145.600,171.319 145.324,171.586 144.827 C 171.813 144.402,172.348 143.943,172.775 143.808 C 173.212 143.669,173.759 142.914,174.027 142.081 C 174.875 139.449,176.935 138.810,180.189 140.170 M179.000 167.519 C 181.081 168.134,181.497 168.426,182.133 169.714 C 182.689 170.841,183.109 171.200,183.872 171.200 C 188.325 171.200,190.939 178.670,186.696 179.273 C 185.854 179.392,185.788 179.636,185.599 183.287 C 185.374 187.636,184.900 188.533,182.824 188.533 C 181.542 188.533,180.000 187.444,180.000 186.538 C 180.000 186.159,179.409 186.000,178.000 186.000 C 176.310 186.000,176.000 186.116,176.000 186.751 C 176.000 188.481,173.116 189.172,171.605 187.805 C 171.016 187.271,170.800 186.572,170.800 185.194 C 170.800 181.093,170.406 179.701,169.174 179.455 C 168.001 179.220,167.096 177.297,167.411 175.710 C 167.488 175.319,167.657 174.499,167.787 173.888 C 168.059 172.596,170.071 171.204,171.667 171.201 C 173.350 171.199,174.000 170.791,174.000 169.739 C 174.000 168.824,175.580 166.793,176.282 166.805 C 176.457 166.808,177.680 167.130,179.000 167.519 M98.194 167.461 C 99.971 167.705,100.151 167.839,100.868 169.461 C 101.478 170.840,101.843 171.200,102.632 171.200 C 107.283 171.200,109.912 178.453,105.603 179.399 L 104.400 179.664 104.400 182.806 C 104.400 188.393,100.998 191.106,99.131 187.008 C 98.451 185.517,95.364 185.516,94.797 187.007 C 94.308 188.294,92.565 189.003,91.303 188.429 C 90.023 187.845,89.600 186.452,89.600 182.817 C 89.600 179.737,89.582 179.682,88.502 179.411 C 84.423 178.387,86.054 171.811,90.512 171.309 C 92.309 171.106,92.417 171.023,92.820 169.527 C 93.402 167.366,94.479 166.952,98.194 167.461 M140.637 168.187 C 141.106 168.494,141.595 169.274,141.724 169.919 C 141.935 170.977,142.144 171.112,143.866 171.306 C 148.068 171.780,150.093 177.973,146.460 179.239 C 145.346 179.627,145.310 179.730,145.087 183.119 C 144.809 187.350,144.650 187.799,143.212 188.395 C 141.836 188.965,139.828 188.114,139.488 186.816 C 139.162 185.569,135.951 185.633,135.395 186.898 C 134.836 188.170,133.131 188.906,131.861 188.423 C 130.593 187.941,130.005 186.004,130.002 182.300 C 130.000 179.867,129.921 179.600,129.200 179.600 C 127.015 179.600,126.104 176.389,127.501 173.606 C 128.319 171.973,129.631 171.214,131.649 171.206 C 133.031 171.200,133.110 171.125,133.356 169.584 C 133.735 167.214,137.924 166.410,140.637 168.187 " stroke="none" fill="#3474ec" fill-rule="evenodd"></path><path id="path4" d="M212.814 100.774 C 212.535 101.295,212.400 117.378,212.400 150.042 C 212.400 194.381,212.344 198.599,211.746 199.260 C 211.139 199.930,211.141 200.002,211.770 200.244 C 213.208 200.796,335.889 200.190,336.567 199.627 C 337.520 198.836,337.522 176.366,336.569 175.574 C 336.057 175.150,324.443 175.018,275.069 174.878 C 239.280 174.777,213.912 174.555,213.500 174.339 C 212.417 173.771,212.417 126.857,213.500 125.914 C 214.118 125.376,221.334 125.277,275.135 125.072 C 322.493 124.892,336.201 124.731,336.662 124.348 C 337.500 123.653,337.002 120.282,335.736 118.084 C 335.192 117.140,334.481 115.472,334.156 114.378 C 333.832 113.284,333.062 111.806,332.446 111.094 C 331.830 110.382,331.150 109.474,330.934 109.076 C 330.276 107.862,324.302 103.616,322.600 103.152 C 321.720 102.912,320.190 102.240,319.200 101.658 L 317.400 100.600 301.800 100.339 C 263.091 99.692,213.263 99.936,212.814 100.774 M289.024 102.598 C 289.794 103.415,290.600 104.884,290.964 106.135 C 291.306 107.311,291.949 108.735,292.392 109.299 C 292.836 109.863,293.546 111.441,293.971 112.806 C 294.396 114.172,295.119 115.688,295.579 116.177 C 296.038 116.666,296.746 118.221,297.152 119.633 C 297.559 121.045,298.024 122.512,298.186 122.894 C 298.809 124.359,297.359 124.406,254.869 124.302 L 213.400 124.200 213.293 113.206 C 213.235 107.159,213.274 101.984,213.381 101.706 C 213.535 101.303,221.135 101.200,250.640 101.200 L 287.706 101.200 289.024 102.598 M134.653 116.779 C 133.421 118.494,133.093 118.708,131.400 118.899 C 128.474 119.229,127.919 120.065,129.525 121.722 C 131.010 123.254,131.600 124.974,131.600 127.766 C 131.600 130.894,132.441 131.507,134.601 129.956 C 136.576 128.538,139.443 128.605,141.088 130.106 C 142.368 131.275,143.199 130.466,143.202 128.051 C 143.206 125.297,143.920 123.160,145.336 121.672 C 146.824 120.108,146.336 119.391,143.470 118.933 C 142.402 118.762,141.465 118.217,140.460 117.181 C 137.935 114.580,136.314 114.468,134.653 116.779 M175.681 116.063 C 174.589 118.087,173.705 118.800,172.289 118.800 C 169.423 118.800,168.522 120.401,170.384 122.185 C 171.198 122.964,171.632 123.834,171.769 124.960 C 171.880 125.862,172.078 127.455,172.209 128.499 C 172.530 131.045,173.431 131.543,175.103 130.098 C 176.595 128.808,179.265 128.793,181.418 130.064 C 183.172 131.098,183.600 130.779,183.600 128.440 C 183.600 125.821,184.541 122.914,185.821 121.578 C 187.155 120.185,186.899 119.767,184.239 118.994 C 183.073 118.655,181.687 117.915,181.159 117.350 C 180.192 116.314,177.602 114.800,176.797 114.800 C 176.558 114.800,176.056 115.368,175.681 116.063 M94.220 116.768 C 93.204 118.377,92.875 118.567,90.314 119.021 C 88.087 119.415,87.649 120.183,88.890 121.514 C 90.419 123.155,90.808 124.151,91.070 127.102 C 91.435 131.209,91.665 131.472,93.797 130.223 C 96.099 128.874,98.938 128.815,100.292 130.087 C 101.578 131.294,102.565 130.668,102.700 128.559 C 102.956 124.571,103.264 123.531,104.640 122.008 C 106.261 120.214,105.904 119.417,103.287 118.987 C 101.191 118.642,100.157 118.063,99.649 116.948 C 98.632 114.716,95.580 114.615,94.220 116.768 M180.281 117.994 C 180.566 118.402,181.745 119.045,182.900 119.422 C 185.530 120.281,185.418 120.133,184.449 121.469 C 183.998 122.091,183.460 123.369,183.255 124.308 C 182.542 127.570,181.997 128.000,178.572 128.000 C 175.875 128.000,175.465 128.104,174.635 129.000 C 173.356 130.381,173.339 130.361,173.018 127.107 C 172.683 123.706,172.030 121.946,170.775 121.068 L 169.866 120.431 170.833 120.071 C 171.365 119.874,172.474 119.589,173.298 119.438 C 174.477 119.223,174.982 118.842,175.667 117.653 L 176.537 116.141 178.149 116.696 C 179.035 117.002,179.995 117.585,180.281 117.994 M140.041 118.047 C 140.642 118.689,141.869 119.357,142.941 119.627 C 145.042 120.156,145.090 120.231,144.045 121.374 C 143.630 121.828,142.983 123.280,142.607 124.600 C 141.654 127.951,141.587 128.000,137.933 128.000 C 135.132 128.000,134.654 128.110,133.815 128.949 L 132.867 129.897 132.602 127.449 C 132.198 123.720,131.677 122.119,130.590 121.264 C 129.244 120.205,129.314 120.091,131.500 119.772 C 132.998 119.554,133.693 119.177,134.786 117.987 C 136.460 116.166,138.300 116.187,140.041 118.047 M99.660 118.135 C 100.577 119.049,101.536 119.556,102.700 119.740 C 104.635 120.047,104.719 120.208,103.577 121.425 C 102.775 122.278,101.615 125.792,101.604 127.400 C 101.599 128.144,101.330 128.200,97.763 128.200 C 94.269 128.200,93.864 128.280,93.200 129.100 C 92.153 130.393,92.123 130.340,91.816 126.654 C 91.544 123.395,90.565 120.800,89.606 120.800 C 88.556 120.800,89.366 120.058,90.686 119.810 C 92.666 119.439,94.281 118.570,94.802 117.596 C 95.530 116.236,98.033 116.514,99.660 118.135 M175.856 142.900 C 175.546 143.395,175.045 144.340,174.742 145.000 C 174.304 145.954,173.792 146.299,172.249 146.681 C 169.249 147.422,167.652 150.000,170.191 150.000 C 171.111 150.000,172.000 151.663,172.002 153.389 C 172.008 157.302,173.341 159.259,174.877 157.609 C 175.967 156.439,180.617 156.548,181.973 157.776 C 183.086 158.783,183.171 158.631,183.769 154.589 C 184.254 151.304,184.375 151.021,185.788 149.835 C 187.556 148.350,187.410 148.116,183.902 146.804 C 182.357 146.226,181.400 145.584,180.952 144.827 C 180.426 143.935,177.445 142.000,176.599 142.000 C 176.499 142.000,176.165 142.405,175.856 142.900 M94.128 144.288 C 93.006 146.201,92.481 146.572,90.355 146.955 C 87.736 147.427,87.284 148.482,89.087 149.911 C 90.546 151.066,90.632 151.268,91.087 154.607 C 91.660 158.808,91.622 158.760,93.559 157.671 C 95.579 156.536,98.518 156.509,100.324 157.610 C 102.044 158.659,102.296 158.446,102.586 155.694 C 102.998 151.797,103.505 150.470,104.848 149.775 C 105.655 149.358,105.987 148.942,105.832 148.540 C 105.705 148.207,105.600 147.864,105.600 147.778 C 105.600 147.693,104.655 147.345,103.500 147.005 C 100.798 146.211,100.500 146.005,99.681 144.365 C 99.080 143.160,98.773 142.974,97.071 142.778 L 95.142 142.557 94.128 144.288 M135.046 143.386 C 134.691 143.928,134.400 144.530,134.400 144.724 C 134.400 145.440,132.807 146.483,131.144 146.857 C 128.152 147.529,127.539 148.752,129.608 149.919 C 130.938 150.669,131.415 151.922,131.818 155.725 C 132.101 158.405,132.683 158.864,134.242 157.638 C 135.916 156.321,140.757 156.636,141.675 158.122 C 142.257 159.062,142.866 157.703,143.278 154.546 C 143.653 151.675,143.812 151.291,145.106 150.148 C 146.943 148.526,146.648 147.811,143.803 146.984 C 142.003 146.460,141.373 146.040,140.570 144.826 C 139.885 143.792,139.091 143.174,138.040 142.859 C 135.945 142.232,135.784 142.260,135.046 143.386 M180.600 145.861 C 181.040 146.375,182.424 147.208,183.676 147.711 L 185.952 148.626 184.764 149.413 C 183.581 150.197,183.461 150.461,183.007 153.289 C 182.664 155.423,181.617 156.000,178.085 156.000 C 176.469 156.000,174.798 156.187,174.370 156.416 C 173.415 156.927,172.800 155.646,172.800 153.148 C 172.800 151.121,172.288 150.169,170.775 149.387 C 169.267 148.607,169.533 148.148,171.702 147.788 C 174.056 147.398,174.619 147.032,175.633 145.226 L 176.517 143.653 178.159 144.290 C 179.061 144.640,180.160 145.347,180.600 145.861 M97.593 144.400 C 98.445 144.400,98.911 144.723,99.498 145.717 C 100.138 146.802,100.722 147.158,102.808 147.738 L 105.341 148.443 104.096 149.200 C 102.528 150.154,102.000 151.135,102.000 153.097 C 102.000 155.704,101.583 155.931,96.529 156.074 L 92.059 156.200 91.829 155.050 C 91.703 154.418,91.600 153.215,91.600 152.379 C 91.600 150.844,91.036 149.968,89.526 149.160 C 88.494 148.608,88.912 148.249,91.351 147.593 C 92.865 147.185,93.537 146.727,94.351 145.547 C 94.938 144.696,95.634 144.109,95.933 144.214 C 96.226 144.316,96.973 144.400,97.593 144.400 M137.906 144.373 C 138.621 144.578,139.662 145.287,140.219 145.949 C 140.891 146.749,141.983 147.371,143.471 147.804 L 145.712 148.455 144.477 149.327 C 143.031 150.350,142.400 151.552,142.400 153.287 C 142.400 155.544,141.553 156.000,137.362 156.000 C 134.838 156.000,133.549 156.159,133.341 156.496 C 132.941 157.142,132.493 155.570,132.440 153.333 C 132.385 151.050,132.134 150.548,130.558 149.574 C 128.957 148.585,129.064 148.190,131.031 147.821 C 133.313 147.392,134.272 146.804,135.053 145.353 C 135.850 143.874,135.994 143.825,137.906 144.373 M176.097 170.100 C 175.877 170.375,175.315 171.358,174.848 172.284 C 174.150 173.670,173.699 174.052,172.300 174.443 C 169.348 175.268,168.878 176.237,170.583 177.982 C 171.804 179.233,172.000 179.697,172.000 181.337 C 172.000 183.024,172.864 185.600,173.430 185.600 C 173.545 185.600,174.207 185.307,174.900 184.948 C 176.129 184.313,180.771 184.353,182.493 185.014 C 183.263 185.310,184.000 183.362,184.000 181.031 C 184.000 179.781,184.297 179.022,185.226 177.895 C 186.648 176.170,186.519 175.784,184.169 174.745 C 183.218 174.325,182.056 173.440,181.585 172.779 C 180.290 170.961,176.781 169.247,176.097 170.100 M93.921 172.024 C 93.157 173.148,92.094 174.156,91.400 174.416 C 88.133 175.641,87.851 176.277,89.737 178.164 C 91.043 179.469,91.179 179.795,90.974 181.116 C 90.828 182.053,90.976 183.152,91.377 184.100 C 92.112 185.840,91.911 185.764,93.738 185.000 C 95.549 184.243,98.419 184.230,100.189 184.970 C 101.998 185.725,102.420 185.207,102.773 181.797 C 103.002 179.580,103.237 179.000,104.383 177.817 C 105.970 176.180,105.690 175.499,103.115 174.727 C 102.240 174.465,101.227 173.821,100.862 173.296 C 98.216 169.484,95.934 169.066,93.921 172.024 M134.299 172.130 C 133.175 173.823,132.537 174.392,131.520 174.608 C 128.727 175.202,128.199 176.440,130.072 178.004 C 131.191 178.938,131.378 179.388,131.620 181.729 C 131.986 185.259,132.386 185.732,134.324 184.921 C 135.958 184.237,140.849 184.411,141.783 185.186 C 142.513 185.792,143.382 183.542,143.250 181.390 C 143.161 179.947,143.345 179.503,144.573 178.201 C 146.482 176.177,146.151 175.218,143.338 174.621 C 142.468 174.436,141.747 173.857,141.021 172.760 C 140.006 171.226,138.950 170.573,136.779 170.137 C 135.897 169.960,135.560 170.230,134.299 172.130 M180.900 173.747 C 181.322 174.326,181.834 174.800,182.039 174.800 C 182.244 174.800,183.029 175.205,183.784 175.700 L 185.158 176.600 184.079 177.726 C 183.179 178.665,183.000 179.211,183.000 181.015 L 183.000 183.179 181.400 183.372 C 173.432 184.336,172.800 184.141,172.800 180.728 C 172.800 178.998,172.628 178.561,171.555 177.558 L 170.311 176.396 172.517 175.420 C 174.185 174.682,174.940 174.060,175.605 172.877 L 176.486 171.310 178.309 172.002 C 179.312 172.383,180.478 173.168,180.900 173.747 M138.479 172.219 C 139.072 172.360,139.832 172.895,140.168 173.407 C 140.503 173.919,141.678 174.828,142.779 175.427 L 144.781 176.517 143.590 177.872 C 142.613 178.985,142.400 179.582,142.400 181.206 C 142.400 183.545,142.510 183.497,136.711 183.700 C 132.389 183.851,132.400 183.858,132.400 181.129 C 132.400 179.316,131.452 177.435,130.273 176.909 C 129.599 176.608,129.846 176.398,131.941 175.489 C 133.293 174.903,134.400 174.262,134.400 174.065 C 134.400 173.259,136.109 171.580,136.740 171.767 C 137.103 171.874,137.886 172.078,138.479 172.219 M99.477 173.233 C 99.915 173.980,101.009 174.849,102.254 175.440 L 104.308 176.414 103.173 177.629 C 102.249 178.618,102.017 179.266,101.919 181.122 L 101.800 183.400 97.000 183.600 C 91.545 183.827,91.615 183.863,91.606 180.822 C 91.601 179.023,91.418 178.454,90.554 177.552 L 89.508 176.460 91.519 175.441 C 92.625 174.881,93.918 173.877,94.392 173.211 C 95.665 171.423,98.424 171.435,99.477 173.233 M310.321 176.020 L 312.280 176.441 312.532 180.920 C 312.670 183.384,312.903 188.374,313.050 192.009 L 313.317 198.618 312.239 199.109 C 310.691 199.815,214.385 199.825,213.680 199.120 C 213.330 198.770,213.200 195.653,213.200 187.600 C 213.200 179.547,213.330 176.430,213.680 176.080 C 214.321 175.439,307.344 175.382,310.321 176.020 M62.880 250.480 C 62.136 251.224,62.200 274.136,62.948 274.757 C 64.035 275.659,336.311 275.179,336.886 274.274 C 337.360 273.530,337.266 251.672,336.786 250.774 C 336.272 249.814,63.838 249.522,62.880 250.480 M306.646 251.313 C 307.141 251.808,306.073 257.135,304.988 259.576 C 304.445 260.799,303.643 263.215,303.205 264.945 C 302.768 266.675,302.065 268.655,301.643 269.345 C 301.222 270.035,300.652 271.362,300.377 272.293 C 299.956 273.722,299.683 274.021,298.639 274.206 C 297.957 274.327,244.840 274.375,180.600 274.313 L 63.800 274.200 63.694 263.005 C 63.635 256.848,63.675 251.582,63.782 251.303 C 64.004 250.725,306.067 250.734,306.646 251.313 " stroke="none" fill="#b4b4b4" fill-rule="evenodd"></path><path id="path5" d="M336.600 124.400 C 336.441 124.657,330.088 124.800,318.853 124.800 C 304.784 124.800,301.208 124.906,300.614 125.341 C 299.567 126.106,300.001 129.266,301.566 132.274 C 302.232 133.553,303.036 135.960,303.354 137.622 C 303.672 139.284,304.311 141.372,304.775 142.261 C 305.238 143.151,305.984 145.811,306.432 148.173 C 306.879 150.535,307.437 152.948,307.670 153.534 C 308.408 155.389,308.779 157.244,309.602 163.200 C 311.349 175.849,310.236 174.969,324.691 175.118 C 331.000 175.183,336.350 175.393,336.581 175.584 C 336.872 175.826,337.000 168.030,337.000 149.966 C 337.000 135.685,336.966 124.000,336.924 124.000 C 336.882 124.000,336.736 124.180,336.600 124.400 M212.800 150.200 C 212.800 165.800,212.938 174.000,213.200 174.000 C 213.462 174.000,213.600 165.800,213.600 150.200 C 213.600 134.600,213.462 126.400,213.200 126.400 C 212.938 126.400,212.800 134.600,212.800 150.200 M336.600 199.600 C 336.445 199.851,332.201 200.000,325.190 200.000 C 311.921 200.000,313.396 198.981,313.029 208.400 C 312.459 223.040,312.058 227.658,311.034 231.400 C 310.492 233.380,309.842 236.890,309.589 239.200 C 309.337 241.510,308.873 244.552,308.557 245.960 C 307.574 250.351,306.372 250.000,322.407 250.000 C 334.087 250.000,336.412 250.093,336.680 250.572 C 336.856 250.886,337.000 239.456,337.000 225.172 C 337.000 210.887,336.966 199.200,336.924 199.200 C 336.882 199.200,336.736 199.380,336.600 199.600 M63.223 200.757 C 62.577 201.964,62.456 250.852,63.100 250.317 C 63.490 249.994,63.600 244.630,63.600 225.984 C 63.600 212.829,63.709 201.781,63.843 201.433 C 64.063 200.859,70.955 200.800,137.843 200.800 C 186.748 200.800,211.600 200.665,211.600 200.400 C 211.600 199.529,63.690 199.885,63.223 200.757 M336.800 274.333 C 336.800 274.682,332.397 274.800,319.426 274.800 C 298.569 274.800,298.892 274.719,297.211 280.362 C 296.777 281.822,295.970 283.627,295.420 284.373 C 294.869 285.119,294.148 286.662,293.817 287.802 C 293.485 288.941,292.847 290.341,292.399 290.911 C 291.950 291.481,291.317 292.700,290.993 293.620 C 288.907 299.532,290.497 299.190,265.087 299.196 C 241.833 299.201,243.337 298.984,239.628 302.869 C 237.034 305.586,236.685 306.516,236.273 311.800 L 236.085 314.200 236.832 312.600 C 237.243 311.720,237.584 310.313,237.590 309.474 C 237.606 307.053,240.006 303.614,243.245 301.368 L 244.930 300.200 266.765 299.924 C 307.181 299.413,317.091 299.099,317.683 298.313 C 318.315 297.473,320.431 296.583,322.674 296.214 C 323.793 296.030,324.553 295.626,324.965 294.997 C 325.304 294.479,326.570 293.465,327.778 292.742 C 329.118 291.941,330.159 290.982,330.448 290.284 C 330.709 289.654,331.416 288.646,332.019 288.042 C 332.730 287.331,333.346 286.039,333.768 284.372 C 334.126 282.958,334.771 281.317,335.201 280.728 C 335.921 279.740,337.318 274.416,336.957 274.033 C 336.871 273.942,336.800 274.077,336.800 274.333 M63.047 277.602 C 63.331 279.386,63.909 281.420,64.332 282.123 C 64.755 282.825,65.395 284.305,65.754 285.412 C 67.147 289.710,73.183 295.611,77.819 297.206 C 78.930 297.589,80.640 298.329,81.619 298.851 L 83.400 299.800 119.411 300.000 L 155.422 300.200 157.323 301.758 C 160.640 304.476,162.309 306.920,162.624 309.519 C 163.097 313.424,163.998 314.457,163.740 310.800 C 163.432 306.434,160.392 301.217,157.163 299.514 C 157.073 299.467,140.694 299.332,120.765 299.214 L 84.531 299.000 82.965 297.924 C 81.567 296.963,80.546 296.619,76.727 295.822 C 76.133 295.698,75.539 295.239,75.398 294.795 C 75.258 294.353,74.605 293.713,73.948 293.373 C 72.167 292.452,69.757 290.146,69.220 288.848 C 68.959 288.218,68.308 287.504,67.773 287.260 C 67.072 286.941,66.800 286.497,66.800 285.672 C 66.800 284.052,65.780 280.862,64.979 279.977 C 64.607 279.565,64.142 278.372,63.946 277.324 C 63.266 273.685,62.463 273.933,63.047 277.602 M180.800 299.834 C 178.281 300.919,174.919 304.875,174.456 307.298 C 173.714 311.180,173.618 313.864,174.252 312.997 C 174.553 312.585,174.804 311.696,174.810 311.024 C 174.837 307.487,177.190 303.807,181.066 301.240 L 182.937 300.000 200.176 300.000 L 217.416 300.000 219.667 301.700 C 223.034 304.242,224.671 306.618,225.016 309.459 C 225.438 312.936,226.495 314.679,226.193 311.400 C 225.660 305.614,225.708 305.745,223.073 302.926 C 221.713 301.470,220.021 300.036,219.313 299.739 C 217.314 298.902,182.768 298.987,180.800 299.834 " stroke="none" fill="#a5141c" fill-rule="evenodd"></path><path id="path6" d="M212.400 100.391 C 211.874 100.724,211.775 106.810,211.600 149.885 L 211.400 199.000 137.819 199.101 C 89.566 199.167,64.101 199.339,63.839 199.601 C 63.574 199.866,88.178 200.000,137.258 200.000 C 208.264 200.000,211.101 199.972,211.738 199.269 C 212.346 198.596,212.400 194.606,212.400 150.042 C 212.400 117.378,212.535 101.295,212.814 100.774 C 213.283 99.898,213.241 99.860,212.400 100.391 M94.665 112.906 C 94.297 113.178,93.655 114.300,93.240 115.400 C 92.604 117.088,92.308 117.419,91.343 117.524 C 88.777 117.803,87.325 118.408,86.881 119.383 C 86.307 120.641,86.951 122.667,88.034 123.011 C 89.211 123.384,89.663 124.611,89.900 128.080 C 90.197 132.404,90.690 132.757,95.170 131.854 C 98.002 131.284,98.492 131.279,99.773 131.815 C 102.783 133.072,103.768 132.111,104.135 127.559 C 104.413 124.109,104.673 123.200,105.381 123.200 C 106.237 123.200,107.200 121.786,107.200 120.530 C 107.200 118.866,106.203 118.119,103.462 117.731 C 101.199 117.411,101.106 117.349,100.587 115.836 C 99.669 113.162,96.469 111.578,94.665 112.906 M135.152 112.803 C 134.494 113.188,133.846 114.563,133.439 116.443 C 133.236 117.380,132.982 117.511,130.965 117.719 C 126.971 118.131,125.923 120.522,128.644 123.014 C 129.978 124.237,130.101 124.542,130.267 127.068 C 130.601 132.138,131.568 133.132,134.921 131.852 C 137.049 131.039,137.948 131.036,140.388 131.834 C 143.522 132.859,144.800 131.640,144.800 127.624 C 144.800 124.773,145.191 123.296,146.002 123.084 C 149.509 122.167,148.016 118.223,143.990 117.767 C 141.843 117.524,141.600 117.403,141.600 116.579 C 141.600 114.150,137.229 111.589,135.152 112.803 M175.472 112.985 C 175.150 113.307,174.669 114.477,174.404 115.585 C 173.930 117.561,173.891 117.600,172.420 117.600 C 167.815 117.600,166.161 120.348,169.099 123.119 C 170.528 124.467,170.608 124.680,170.832 127.729 C 171.151 132.067,172.713 133.379,175.704 131.819 C 176.779 131.259,178.819 131.378,182.017 132.188 C 184.097 132.714,185.055 131.310,185.301 127.375 C 185.512 123.995,185.549 123.892,186.958 122.730 C 189.597 120.555,188.531 118.274,184.649 117.789 C 182.584 117.531,182.403 117.421,181.993 116.178 C 181.167 113.677,176.879 111.578,175.472 112.985 M140.460 117.181 C 141.465 118.217,142.402 118.762,143.470 118.933 C 146.336 119.391,146.824 120.108,145.336 121.672 C 143.920 123.160,143.206 125.297,143.202 128.051 C 143.199 130.466,142.368 131.275,141.088 130.106 C 139.443 128.605,136.576 128.538,134.601 129.956 C 132.441 131.507,131.600 130.894,131.600 127.766 C 131.600 124.974,131.010 123.254,129.525 121.722 C 127.919 120.065,128.474 119.229,131.400 118.899 C 133.093 118.708,133.421 118.494,134.653 116.779 C 136.314 114.468,137.935 114.580,140.460 117.181 M178.716 115.561 C 179.532 115.980,180.632 116.785,181.159 117.350 C 181.687 117.915,183.073 118.655,184.239 118.994 C 186.899 119.767,187.155 120.185,185.821 121.578 C 184.541 122.914,183.600 125.821,183.600 128.440 C 183.600 130.779,183.172 131.098,181.418 130.064 C 179.265 128.793,176.595 128.808,175.103 130.098 C 173.431 131.543,172.530 131.045,172.209 128.499 C 172.078 127.455,171.880 125.862,171.769 124.960 C 171.632 123.834,171.198 122.964,170.384 122.185 C 168.522 120.401,169.423 118.800,172.289 118.800 C 173.705 118.800,174.589 118.087,175.681 116.063 C 176.477 114.588,176.735 114.545,178.716 115.561 M98.179 115.592 C 98.746 115.808,99.408 116.418,99.649 116.948 C 100.157 118.063,101.191 118.642,103.287 118.987 C 105.904 119.417,106.261 120.214,104.640 122.008 C 103.264 123.531,102.956 124.571,102.700 128.559 C 102.565 130.668,101.578 131.294,100.292 130.087 C 98.938 128.815,96.099 128.874,93.797 130.223 C 91.665 131.472,91.435 131.209,91.070 127.102 C 90.808 124.151,90.419 123.155,88.890 121.514 C 87.649 120.183,88.087 119.415,90.314 119.021 C 92.875 118.567,93.204 118.377,94.220 116.768 C 95.271 115.103,96.181 114.832,98.179 115.592 M135.151 140.540 C 134.322 141.147,133.200 143.351,133.200 144.373 C 133.200 144.934,132.860 145.259,132.100 145.424 C 126.824 146.571,125.217 149.109,128.697 150.800 C 130.081 151.473,130.393 152.408,130.413 155.950 C 130.432 159.425,132.080 160.953,134.331 159.583 C 135.029 159.159,135.600 158.606,135.600 158.354 C 135.600 157.800,139.166 158.109,139.549 158.697 C 141.641 161.900,144.420 159.878,144.761 154.906 C 144.989 151.566,145.051 151.384,146.124 150.871 C 149.601 149.209,147.401 145.613,142.900 145.602 C 142.343 145.601,142.000 145.356,142.000 144.960 C 142.000 142.054,137.260 138.995,135.151 140.540 M175.549 140.644 C 175.247 140.998,174.550 142.205,174.000 143.325 C 173.050 145.260,172.890 145.387,170.824 145.841 C 167.095 146.661,166.282 149.983,169.533 151.117 C 170.654 151.507,170.687 151.603,170.898 154.980 C 171.204 159.891,173.195 161.567,175.630 158.963 C 176.796 157.717,178.911 157.800,180.640 159.160 C 183.191 161.166,185.179 159.638,185.240 155.625 C 185.291 152.234,185.585 151.281,186.761 150.686 C 189.603 149.248,188.861 146.856,185.307 146.003 C 183.168 145.490,182.789 145.261,182.592 144.364 C 182.000 141.670,176.949 139.002,175.549 140.644 M94.600 140.706 C 93.813 141.285,93.100 142.417,92.592 143.896 C 92.115 145.286,91.917 145.430,89.981 145.800 C 86.224 146.519,85.306 149.400,88.334 150.966 C 89.448 151.542,89.516 151.732,89.792 155.044 C 90.206 160.012,93.034 162.100,94.823 158.758 C 95.450 157.586,98.091 157.727,99.364 159.000 C 101.882 161.519,103.780 159.895,104.172 154.885 C 104.450 151.330,104.478 151.251,105.634 150.848 C 108.902 149.709,107.535 146.284,103.603 145.763 C 101.886 145.535,101.731 145.411,101.021 143.693 C 99.791 140.719,96.602 139.236,94.600 140.706 M178.534 142.853 C 179.500 143.322,180.588 144.210,180.952 144.827 C 181.400 145.584,182.357 146.226,183.902 146.804 C 187.410 148.116,187.556 148.350,185.788 149.835 C 184.375 151.021,184.254 151.304,183.769 154.589 C 183.171 158.631,183.086 158.783,181.973 157.776 C 180.617 156.548,175.967 156.439,174.877 157.609 C 173.341 159.259,172.008 157.302,172.002 153.389 C 172.000 151.663,171.111 150.000,170.191 150.000 C 167.652 150.000,169.249 147.422,172.249 146.681 C 173.792 146.299,174.304 145.954,174.742 145.000 C 176.237 141.743,176.243 141.740,178.534 142.853 M99.681 144.365 C 100.500 146.005,100.798 146.211,103.500 147.005 C 104.655 147.345,105.600 147.693,105.600 147.778 C 105.600 147.864,105.705 148.207,105.832 148.540 C 105.987 148.942,105.655 149.358,104.848 149.775 C 103.505 150.470,102.998 151.797,102.586 155.694 C 102.296 158.446,102.044 158.659,100.324 157.610 C 98.518 156.509,95.579 156.536,93.559 157.671 C 91.622 158.760,91.660 158.808,91.087 154.607 C 90.632 151.268,90.546 151.066,89.087 149.911 C 87.284 148.482,87.736 147.427,90.355 146.955 C 92.481 146.572,93.006 146.201,94.128 144.288 L 95.142 142.557 97.071 142.778 C 98.773 142.974,99.080 143.160,99.681 144.365 M138.040 142.859 C 139.091 143.174,139.885 143.792,140.570 144.826 C 141.373 146.040,142.003 146.460,143.803 146.984 C 146.648 147.811,146.943 148.526,145.106 150.148 C 143.812 151.291,143.653 151.675,143.278 154.546 C 142.866 157.703,142.257 159.062,141.675 158.122 C 140.757 156.636,135.916 156.321,134.242 157.638 C 132.683 158.864,132.101 158.405,131.818 155.725 C 131.415 151.922,130.938 150.669,129.608 149.919 C 127.539 148.752,128.152 147.529,131.144 146.857 C 132.807 146.483,134.400 145.440,134.400 144.724 C 134.400 144.132,135.666 142.400,136.100 142.400 C 136.324 142.400,137.197 142.607,138.040 142.859 M135.288 167.891 C 135.006 167.992,134.340 168.934,133.808 169.983 C 133.048 171.483,132.576 171.945,131.602 172.140 C 127.403 172.979,125.901 177.294,129.212 179.006 C 130.319 179.579,130.400 179.777,130.402 181.910 C 130.407 187.130,132.178 189.304,134.447 186.877 C 136.153 185.052,138.786 185.042,140.655 186.853 C 142.872 189.002,144.407 187.368,144.717 182.526 C 144.898 179.719,144.994 179.452,146.035 178.854 C 149.035 177.132,147.352 172.970,143.330 172.166 C 142.535 172.007,141.900 171.448,141.268 170.350 C 140.766 169.477,139.960 168.618,139.477 168.440 C 138.228 167.981,135.891 167.674,135.288 167.891 M175.545 167.993 C 175.184 168.211,174.765 168.887,174.613 169.495 C 174.269 170.874,173.282 172.000,172.418 172.000 C 168.766 172.000,166.502 177.143,169.402 178.854 C 170.627 179.577,170.696 179.751,170.917 182.676 C 171.276 187.427,173.332 189.424,175.184 186.822 C 176.302 185.253,179.525 185.024,180.704 186.430 C 183.200 189.407,185.200 187.492,185.200 182.127 C 185.200 179.638,185.235 179.552,186.582 178.757 C 189.484 177.045,187.978 173.224,184.000 172.206 C 183.450 172.066,182.550 171.325,182.000 170.560 C 180.443 168.395,177.086 167.060,175.545 167.993 M94.100 168.737 C 93.715 169.143,93.104 170.024,92.742 170.696 C 92.322 171.477,91.656 172.012,90.899 172.178 C 86.909 173.055,85.412 177.925,88.802 179.001 C 89.415 179.195,89.600 179.607,89.600 180.772 C 89.600 186.613,91.620 189.427,93.925 186.800 C 94.836 185.762,95.253 185.600,97.014 185.600 C 98.812 185.600,99.153 185.740,99.937 186.800 C 101.912 189.472,103.692 187.801,103.992 182.992 C 104.196 179.707,104.224 179.634,105.600 178.711 C 108.446 176.803,106.083 172.000,102.297 172.000 C 101.950 172.000,101.263 171.325,100.771 170.500 C 99.193 167.852,95.793 166.954,94.100 168.737 M178.778 170.589 C 179.852 171.133,181.115 172.118,181.585 172.779 C 182.056 173.440,183.218 174.325,184.169 174.745 C 186.519 175.784,186.648 176.170,185.226 177.895 C 184.297 179.022,184.000 179.781,184.000 181.031 C 184.000 183.362,183.263 185.310,182.493 185.014 C 180.771 184.353,176.129 184.313,174.900 184.948 C 174.207 185.307,173.545 185.600,173.430 185.600 C 172.864 185.600,172.000 183.024,172.000 181.337 C 172.000 179.697,171.804 179.233,170.583 177.982 C 168.878 176.237,169.348 175.268,172.300 174.443 C 173.699 174.052,174.150 173.670,174.848 172.284 C 176.393 169.217,176.220 169.292,178.778 170.589 M99.400 171.410 C 99.840 171.923,100.498 172.772,100.862 173.296 C 101.227 173.821,102.240 174.465,103.115 174.727 C 105.690 175.499,105.970 176.180,104.383 177.817 C 103.237 179.000,103.002 179.580,102.773 181.797 C 102.420 185.207,101.998 185.725,100.189 184.970 C 98.419 184.230,95.549 184.243,93.738 185.000 C 91.911 185.764,92.112 185.840,91.377 184.100 C 90.976 183.152,90.828 182.053,90.974 181.116 C 91.179 179.795,91.043 179.469,89.737 178.164 C 87.851 176.277,88.133 175.641,91.400 174.416 C 92.094 174.156,93.157 173.148,93.921 172.024 C 95.460 169.762,97.764 169.504,99.400 171.410 M138.884 170.755 C 139.480 170.982,140.442 171.884,141.021 172.760 C 141.747 173.857,142.468 174.436,143.338 174.621 C 146.151 175.218,146.482 176.177,144.573 178.201 C 143.345 179.503,143.161 179.947,143.250 181.390 C 143.382 183.542,142.513 185.792,141.783 185.186 C 140.849 184.411,135.958 184.237,134.324 184.921 C 132.386 185.732,131.986 185.259,131.620 181.729 C 131.378 179.388,131.191 178.938,130.072 178.004 C 128.199 176.440,128.727 175.202,131.520 174.608 C 132.537 174.392,133.175 173.823,134.299 172.130 C 135.858 169.782,136.123 169.703,138.884 170.755 " stroke="none" fill="#5488ec" fill-rule="evenodd"></path><path id="path7" d="M211.467 101.067 C 211.320 101.213,211.200 123.263,211.200 150.067 L 211.200 198.800 137.624 198.800 C 97.157 198.800,63.964 198.935,63.862 199.100 C 63.760 199.265,96.914 199.310,137.538 199.200 L 211.400 199.000 211.600 149.900 C 211.710 122.895,211.785 100.800,211.767 100.800 C 211.748 100.800,211.613 100.920,211.467 101.067 M94.029 112.300 C 93.508 112.725,92.957 113.918,92.629 115.336 C 92.013 117.999,92.339 117.893,93.369 115.095 C 94.808 111.185,99.835 111.875,100.680 116.098 C 100.803 116.713,101.036 117.299,101.198 117.399 C 101.677 117.695,100.849 113.934,100.226 112.983 C 99.274 111.530,95.486 111.113,94.029 112.300 M134.497 112.256 C 133.852 112.789,133.543 113.568,133.405 115.000 C 133.264 116.476,133.299 116.685,133.537 115.800 C 134.569 111.977,137.949 111.322,140.571 114.438 C 141.467 115.503,141.600 115.557,141.600 114.853 C 141.600 112.391,136.562 110.549,134.497 112.256 M175.325 111.889 C 174.670 112.340,173.995 114.233,174.027 115.526 C 174.048 116.390,174.161 116.255,174.603 114.838 C 175.717 111.265,180.183 112.125,182.097 116.281 L 182.796 117.800 182.550 116.400 C 182.216 114.501,181.358 112.913,180.384 112.392 C 179.307 111.815,175.921 111.478,175.325 111.889 M172.800 117.200 L 171.800 117.520 172.900 117.560 C 173.505 117.582,174.000 117.420,174.000 117.200 C 174.000 116.980,173.955 116.818,173.900 116.840 C 173.845 116.862,173.350 117.024,172.800 117.200 M86.976 118.168 C 85.529 119.227,85.966 122.247,87.810 123.937 C 89.291 125.294,89.346 125.442,89.523 128.495 C 89.766 132.701,89.757 132.695,97.282 132.602 C 104.406 132.513,104.423 132.504,104.339 128.851 L 104.278 126.200 104.037 128.600 C 103.680 132.168,102.589 132.991,99.773 131.815 C 98.492 131.279,98.002 131.284,95.170 131.854 C 90.690 132.757,90.197 132.404,89.900 128.080 C 89.663 124.611,89.211 123.384,88.034 123.011 C 85.943 122.347,86.335 118.678,88.567 118.030 C 89.728 117.693,89.740 117.670,88.776 117.636 C 88.214 117.616,87.404 117.856,86.976 118.168 M104.800 117.891 C 107.631 118.406,108.092 123.200,105.311 123.200 C 104.792 123.200,104.391 124.164,104.425 125.333 C 104.450 126.170,104.462 126.172,104.779 125.400 C 104.960 124.960,105.669 124.104,106.354 123.497 C 108.709 121.412,107.858 117.535,105.071 117.654 C 103.979 117.701,103.940 117.735,104.800 117.891 M127.429 118.229 C 126.058 119.600,126.958 123.454,128.986 124.894 C 130.555 126.008,130.248 124.484,128.600 122.974 C 126.456 121.010,126.849 118.509,129.400 117.888 C 130.022 117.736,129.961 117.682,129.129 117.646 C 128.539 117.621,127.774 117.883,127.429 118.229 M144.600 117.797 C 144.820 117.870,145.472 118.033,146.049 118.160 C 148.366 118.668,148.296 122.484,145.959 123.095 C 145.542 123.204,145.200 123.536,145.200 123.833 C 145.200 124.235,145.547 124.168,146.557 123.572 C 149.528 121.819,148.769 117.552,145.500 117.632 C 144.785 117.649,144.380 117.723,144.600 117.797 M167.823 118.489 C 166.621 120.205,167.801 124.429,169.645 125.014 C 170.032 125.137,170.429 125.544,170.528 125.919 C 170.659 126.417,170.720 126.363,170.754 125.715 C 170.782 125.173,170.181 124.218,169.200 123.247 C 167.002 121.071,167.062 119.171,169.360 118.171 L 170.600 117.631 169.523 117.616 C 168.850 117.606,168.211 117.934,167.823 118.489 M185.980 118.007 C 188.732 118.655,189.194 120.887,186.958 122.730 C 185.549 123.892,185.512 123.995,185.301 127.375 C 185.055 131.310,184.097 132.714,182.017 132.188 C 178.819 131.378,176.779 131.259,175.704 131.819 C 173.598 132.918,171.534 132.187,171.026 130.162 C 170.880 129.581,170.685 129.182,170.591 129.275 C 170.185 129.682,171.273 132.324,171.906 132.468 C 173.571 132.848,184.470 132.490,184.919 132.041 C 185.177 131.783,185.505 129.917,185.648 127.895 C 185.855 124.971,186.054 124.135,186.619 123.809 C 189.962 121.883,189.504 117.535,185.969 117.641 L 184.600 117.682 185.980 118.007 M144.874 127.074 C 144.735 131.729,143.635 132.896,140.388 131.834 C 137.955 131.038,136.887 131.037,134.992 131.829 C 131.998 133.080,130.668 132.070,130.365 128.315 L 130.129 125.400 130.065 128.224 C 129.964 132.613,129.895 132.572,137.353 132.534 C 145.202 132.493,145.476 132.290,145.099 126.800 L 144.948 124.600 144.874 127.074 M93.930 140.015 C 93.562 140.230,93.039 141.075,92.769 141.893 C 92.499 142.711,91.856 143.713,91.339 144.119 C 90.823 144.526,90.400 145.025,90.400 145.229 C 90.400 145.903,92.020 145.614,92.250 144.900 C 93.445 141.180,94.237 140.400,96.816 140.400 C 99.154 140.400,99.907 140.995,101.032 143.731 C 101.633 145.191,102.001 145.597,102.724 145.599 C 103.773 145.600,103.580 145.031,102.148 143.894 C 101.658 143.505,101.047 142.549,100.790 141.769 C 100.135 139.784,96.096 138.751,93.930 140.015 M134.560 139.906 C 133.925 140.330,133.197 141.828,133.216 142.674 C 133.227 143.192,133.417 143.057,133.880 142.200 C 135.836 138.574,142.000 140.670,142.000 144.960 C 142.000 145.376,142.350 145.600,143.000 145.600 C 144.235 145.600,144.283 145.044,143.119 144.229 C 142.635 143.889,141.870 142.848,141.419 141.914 C 140.887 140.810,140.250 140.123,139.600 139.948 C 138.215 139.577,135.092 139.551,134.560 139.906 M174.901 140.100 C 174.683 140.375,174.290 141.266,174.027 142.081 C 173.759 142.914,173.212 143.669,172.775 143.808 C 171.507 144.210,170.898 145.698,172.069 145.532 C 172.742 145.437,173.277 144.821,174.000 143.311 C 175.536 140.104,176.013 139.759,178.083 140.368 C 180.145 140.973,182.269 142.893,182.613 144.461 C 182.782 145.231,183.113 145.600,183.632 145.600 C 184.563 145.600,184.622 145.082,183.771 144.376 C 183.425 144.089,182.784 143.153,182.347 142.297 C 181.172 139.993,176.160 138.514,174.901 140.100 M131.398 144.402 C 130.513 145.380,130.817 145.783,132.181 145.440 C 132.844 145.274,133.200 144.908,133.200 144.392 C 133.200 143.372,132.325 143.377,131.398 144.402 M87.131 146.015 C 85.354 147.052,85.995 150.960,88.016 151.403 C 88.925 151.603,89.185 151.909,89.313 152.927 L 89.472 154.200 89.536 152.910 C 89.589 151.847,89.386 151.510,88.383 150.991 C 85.764 149.637,86.165 146.575,89.042 145.947 L 90.200 145.695 89.000 145.659 C 88.340 145.640,87.499 145.800,87.131 146.015 M105.190 146.123 C 107.811 147.023,108.083 149.680,105.666 150.772 C 104.690 151.213,104.412 151.580,104.454 152.372 C 104.499 153.219,104.538 153.253,104.674 152.564 C 104.765 152.104,105.406 151.474,106.099 151.164 C 108.175 150.235,108.321 146.394,106.301 145.852 C 104.631 145.405,103.735 145.623,105.190 146.123 M127.689 146.223 C 127.200 146.565,126.803 147.240,126.806 147.723 C 126.812 148.562,126.834 148.557,127.316 147.600 C 127.594 147.049,128.445 146.385,129.210 146.123 C 130.430 145.704,130.476 145.642,129.589 145.623 C 129.033 145.610,128.178 145.880,127.689 146.223 M145.498 146.013 C 148.274 146.888,148.633 149.671,146.124 150.871 C 145.051 151.384,144.989 151.566,144.761 154.906 C 144.420 159.878,141.641 161.900,139.549 158.697 C 139.166 158.109,135.600 157.800,135.600 158.354 C 135.600 158.606,135.036 159.155,134.348 159.573 C 131.989 161.007,130.515 159.499,130.267 155.400 C 130.161 153.654,130.133 153.841,130.163 156.088 C 130.219 160.240,132.997 162.156,135.576 159.821 C 136.290 159.176,138.183 159.295,139.721 160.082 C 143.116 161.819,144.879 160.279,145.170 155.320 C 145.376 151.818,145.484 151.393,146.200 151.263 C 149.462 150.670,149.105 146.179,145.765 145.787 L 144.200 145.603 145.498 146.013 M168.000 146.400 C 166.451 147.949,167.020 150.326,169.273 151.719 C 169.904 152.109,170.414 152.839,170.513 153.491 C 170.649 154.397,170.691 154.327,170.740 153.105 C 170.794 151.756,170.665 151.554,169.414 151.032 C 166.919 149.989,167.092 146.799,169.684 146.052 C 170.962 145.683,170.968 145.671,169.900 145.636 C 169.293 145.616,168.441 145.959,168.000 146.400 M186.194 146.107 C 188.806 146.951,189.172 149.464,186.854 150.640 C 185.424 151.366,185.408 151.599,186.818 151.195 C 190.086 150.258,189.574 146.190,186.136 145.777 L 184.600 145.592 186.194 146.107 M126.825 149.451 C 126.811 149.919,127.031 150.494,127.313 150.728 C 128.058 151.346,130.000 152.033,130.000 151.678 C 130.000 151.511,129.460 151.172,128.800 150.922 C 128.140 150.673,127.431 150.049,127.225 149.535 C 126.867 148.640,126.850 148.637,126.825 149.451 M185.200 155.525 C 185.200 159.634,183.235 161.201,180.640 159.160 C 178.911 157.800,176.796 157.717,175.630 158.963 C 173.931 160.780,171.539 160.062,171.091 157.600 C 170.953 156.842,170.896 156.951,170.854 158.051 C 170.764 160.474,174.412 161.661,175.984 159.719 C 176.426 159.173,176.867 159.017,177.412 159.213 C 184.014 161.585,185.600 160.916,185.600 155.756 C 185.600 154.130,185.510 152.800,185.400 152.800 C 185.290 152.800,185.200 154.026,185.200 155.525 M104.072 156.300 C 103.953 159.776,101.529 161.166,99.364 159.000 C 98.091 157.727,95.450 157.586,94.823 158.758 C 93.449 161.325,90.428 160.201,89.978 156.955 L 89.707 155.000 89.660 157.000 C 89.605 159.327,89.835 159.805,91.274 160.352 C 92.412 160.785,95.200 160.255,95.200 159.606 C 95.200 159.173,97.596 159.493,99.877 160.232 C 103.230 161.318,104.598 160.062,104.297 156.173 L 104.144 154.200 104.072 156.300 M174.982 167.782 C 174.442 168.322,174.000 169.203,174.000 169.739 C 174.000 170.791,173.350 171.199,171.667 171.201 C 170.071 171.204,168.059 172.596,167.787 173.888 C 167.657 174.499,167.488 175.319,167.411 175.710 C 167.092 177.316,168.001 179.220,169.201 179.460 C 170.131 179.646,170.387 179.936,170.514 180.946 L 170.672 182.200 170.736 180.940 C 170.789 179.902,170.563 179.539,169.459 178.888 C 166.508 177.147,168.719 172.000,172.418 172.000 C 173.288 172.000,174.270 170.871,174.620 169.468 C 175.344 166.568,182.775 168.557,182.798 171.657 C 182.799 171.798,183.295 172.037,183.900 172.188 C 187.963 173.202,189.523 177.023,186.582 178.757 C 185.235 179.552,185.200 179.638,185.200 182.127 C 185.200 187.492,183.200 189.407,180.704 186.430 C 179.534 185.035,176.302 185.252,175.200 186.800 C 173.780 188.794,171.875 187.993,171.194 185.116 L 170.882 183.800 170.841 185.438 C 170.812 186.608,171.030 187.284,171.605 187.805 C 173.116 189.172,176.000 188.481,176.000 186.751 C 176.000 186.116,176.310 186.000,178.000 186.000 C 179.409 186.000,180.000 186.159,180.000 186.538 C 180.000 187.444,181.542 188.533,182.824 188.533 C 184.900 188.533,185.374 187.636,185.599 183.287 C 185.788 179.636,185.854 179.392,186.696 179.273 C 190.939 178.670,188.325 171.200,183.872 171.200 C 183.109 171.200,182.689 170.841,182.133 169.714 C 181.497 168.426,181.081 168.134,179.000 167.519 C 175.979 166.628,176.147 166.617,174.982 167.782 M94.121 167.605 C 93.564 167.829,93.087 168.533,92.820 169.527 C 92.417 171.023,92.309 171.106,90.512 171.309 C 85.990 171.819,84.410 178.503,88.602 179.389 L 89.800 179.642 88.600 178.963 C 85.532 177.227,86.949 173.046,90.899 172.178 C 91.656 172.012,92.322 171.477,92.742 170.696 C 94.788 166.898,98.569 166.805,100.771 170.500 C 101.263 171.325,101.950 172.000,102.297 172.000 C 106.083 172.000,108.446 176.803,105.600 178.711 C 104.224 179.634,104.196 179.707,103.992 182.992 C 103.692 187.801,101.912 189.472,99.937 186.800 C 99.153 185.740,98.812 185.600,97.014 185.600 C 95.253 185.600,94.836 185.762,93.925 186.800 C 92.175 188.794,90.670 188.004,90.033 184.756 L 89.688 183.000 89.644 184.474 C 89.524 188.490,93.492 190.440,94.797 187.007 C 95.364 185.516,98.451 185.517,99.131 187.008 C 100.998 191.106,104.400 188.393,104.400 182.806 L 104.400 179.664 105.603 179.399 C 109.912 178.453,107.283 171.200,102.632 171.200 C 101.843 171.200,101.478 170.840,100.868 169.461 C 100.151 167.839,99.971 167.705,98.194 167.461 C 95.829 167.137,95.230 167.158,94.121 167.605 M134.677 167.459 C 133.932 167.674,133.187 169.139,133.218 170.326 C 133.228 170.707,133.568 170.370,134.002 169.549 C 135.490 166.733,139.651 167.300,141.406 170.558 C 141.906 171.487,142.520 172.004,143.312 172.162 C 147.350 172.970,149.043 177.128,146.035 178.854 C 144.994 179.452,144.898 179.719,144.717 182.526 C 144.407 187.368,142.872 189.002,140.655 186.853 C 138.786 185.042,136.153 185.052,134.447 186.877 C 132.178 189.304,130.407 187.130,130.402 181.910 C 130.400 179.777,130.319 179.579,129.212 179.006 C 125.906 177.297,127.402 172.980,131.590 172.142 C 133.397 171.781,133.480 171.199,131.724 171.206 C 129.633 171.214,128.328 171.956,127.501 173.606 C 126.104 176.389,127.015 179.600,129.200 179.600 C 129.921 179.600,130.000 179.867,130.002 182.300 C 130.005 186.004,130.593 187.941,131.861 188.423 C 133.131 188.906,134.836 188.170,135.395 186.898 C 135.951 185.633,139.162 185.569,139.488 186.816 C 139.828 188.114,141.836 188.965,143.212 188.395 C 144.650 187.799,144.809 187.350,145.087 183.119 C 145.310 179.730,145.346 179.627,146.460 179.239 C 150.093 177.973,148.068 171.780,143.866 171.306 C 142.144 171.112,141.935 170.977,141.724 169.919 C 141.346 168.030,137.430 166.663,134.677 167.459 " stroke="none" fill="#4c84ec" fill-rule="evenodd"></path><path id="path8" d="M212.600 99.600 C 212.145 99.796,227.835 99.973,249.000 100.011 C 269.460 100.048,293.220 100.196,301.800 100.339 L 317.400 100.600 319.200 101.658 C 320.190 102.240,321.720 102.912,322.600 103.152 C 324.302 103.616,330.276 107.862,330.934 109.076 C 331.150 109.474,331.830 110.382,332.446 111.094 C 333.062 111.806,333.832 113.284,334.156 114.378 C 334.481 115.472,335.214 117.163,335.784 118.136 L 336.820 119.905 336.951 197.052 C 337.090 279.392,337.117 278.099,335.198 280.733 C 334.770 281.320,334.126 282.958,333.768 284.372 C 333.346 286.039,332.730 287.331,332.019 288.042 C 331.416 288.646,330.709 289.654,330.448 290.284 C 330.159 290.982,329.118 291.941,327.778 292.742 C 326.570 293.465,325.304 294.479,324.965 294.997 C 324.553 295.626,323.793 296.030,322.674 296.214 C 320.431 296.583,318.315 297.473,317.683 298.313 C 317.091 299.099,307.181 299.413,266.765 299.924 L 244.930 300.200 243.245 301.368 C 240.049 303.584,237.600 307.063,237.600 309.387 C 237.600 310.178,237.330 311.472,237.000 312.262 C 236.266 314.017,236.266 314.026,236.963 313.759 C 237.682 313.483,238.293 311.918,238.629 309.490 C 238.788 308.345,239.180 307.379,239.607 307.080 C 240.000 306.805,240.716 305.910,241.200 305.090 C 241.683 304.271,242.235 303.600,242.426 303.600 C 242.616 303.600,243.438 303.015,244.253 302.300 L 245.733 301.000 277.767 300.727 C 320.106 300.367,318.747 300.418,320.664 299.113 C 321.509 298.537,322.888 297.882,323.729 297.657 C 324.570 297.432,326.010 296.635,326.929 295.886 C 327.848 295.137,328.996 294.315,329.480 294.059 C 330.852 293.333,334.316 288.462,335.053 286.222 C 335.419 285.110,336.051 283.772,336.458 283.248 C 338.204 281.000,338.167 282.840,338.110 199.489 C 338.052 116.454,338.087 118.119,336.388 116.294 C 336.003 115.882,335.461 114.733,335.184 113.743 C 334.907 112.752,333.897 110.933,332.940 109.701 C 331.983 108.468,331.200 107.357,331.199 107.230 C 331.199 107.104,330.389 106.488,329.399 105.863 C 328.410 105.238,327.600 104.596,327.600 104.437 C 327.600 104.041,324.630 102.400,323.914 102.400 C 323.597 102.400,322.454 101.815,321.375 101.100 L 319.413 99.800 302.606 99.539 C 277.946 99.157,213.530 99.200,212.600 99.600 M61.998 200.675 C 61.347 202.885,61.639 279.649,62.306 281.564 C 62.567 282.314,63.129 283.304,63.555 283.764 C 63.980 284.224,64.542 285.410,64.803 286.400 C 65.403 288.675,69.091 293.548,70.980 294.563 C 71.761 294.983,72.400 295.470,72.400 295.646 C 72.400 296.134,75.633 297.887,77.095 298.192 C 77.808 298.340,78.505 298.646,78.644 298.872 C 79.700 300.579,79.915 300.590,118.295 300.800 L 154.790 301.000 155.895 302.098 C 161.191 307.363,161.330 307.557,161.639 310.123 C 161.797 311.435,162.224 312.785,162.621 313.223 C 163.644 314.353,164.109 314.174,163.461 312.900 C 163.154 312.295,162.777 310.774,162.625 309.519 C 162.309 306.920,160.639 304.475,157.323 301.758 L 155.422 300.200 119.411 300.000 L 83.400 299.800 81.619 298.851 C 80.640 298.329,78.930 297.589,77.819 297.206 C 73.183 295.611,67.147 289.710,65.754 285.412 C 65.395 284.305,64.755 282.825,64.332 282.123 C 62.470 279.032,62.364 276.013,62.744 237.200 C 62.938 217.290,63.166 200.659,63.249 200.243 C 63.542 198.773,62.447 199.150,61.998 200.675 M181.031 301.262 C 177.719 303.457,175.304 306.758,175.019 309.484 C 174.886 310.758,174.520 312.295,174.207 312.900 C 173.546 314.176,173.960 314.349,174.979 313.223 C 175.387 312.772,175.802 311.425,175.969 310.011 C 176.189 308.141,176.464 307.431,177.153 306.948 C 177.647 306.602,178.211 305.897,178.407 305.381 C 178.604 304.864,179.267 304.134,179.882 303.757 C 180.497 303.381,181.403 302.606,181.895 302.036 L 182.790 301.000 199.989 301.000 L 217.189 301.000 218.295 302.090 C 223.954 307.668,223.892 307.586,224.198 310.000 C 224.480 312.228,225.287 314.000,226.019 314.000 C 226.249 314.000,226.182 313.530,225.861 312.900 C 225.554 312.295,225.174 310.747,225.017 309.459 C 224.671 306.618,223.033 304.241,219.667 301.700 L 217.416 300.000 200.176 300.000 L 182.937 300.000 181.031 301.262 " stroke="none" fill="#640c0c" fill-rule="evenodd"></path></g></svg>